<mxfile host="app.diagrams.net" agent="Mozilla/5.0 (Windows NT 10.0; Win64; x64) AppleWebKit/537.36 (KHTML, like Gecko) Chrome/127.0.0.0 Safari/537.36" version="24.7.7">
  <diagram name="페이지-1" id="HYxOwi0fL_35cWmPwiBP">
    <mxGraphModel dx="1880" dy="898" grid="0" gridSize="10" guides="1" tooltips="1" connect="1" arrows="1" fold="1" page="0" pageScale="1" pageWidth="827" pageHeight="1169" math="0" shadow="0">
      <root>
        <mxCell id="0" />
        <mxCell id="1" parent="0" />
        <mxCell id="PoWHnMbvYt9HGjduFf2e-2" value="" style="group" vertex="1" connectable="0" parent="1">
          <mxGeometry x="40" y="40" width="1624" height="687" as="geometry" />
        </mxCell>
        <mxCell id="PoWHnMbvYt9HGjduFf2e-3" value="AWS Cloud - Seoul Region" style="points=[[0,0],[0.25,0],[0.5,0],[0.75,0],[1,0],[1,0.25],[1,0.5],[1,0.75],[1,1],[0.75,1],[0.5,1],[0.25,1],[0,1],[0,0.75],[0,0.5],[0,0.25]];outlineConnect=0;gradientColor=none;html=1;whiteSpace=wrap;fontSize=12;fontStyle=0;container=1;pointerEvents=0;collapsible=0;recursiveResize=0;shape=mxgraph.aws4.group;grIcon=mxgraph.aws4.group_aws_cloud_alt;strokeColor=#232F3E;fillColor=none;verticalAlign=top;align=left;spacingLeft=30;fontColor=#232F3E;dashed=0;" vertex="1" parent="PoWHnMbvYt9HGjduFf2e-2">
          <mxGeometry x="126" width="1498" height="687" as="geometry" />
        </mxCell>
        <mxCell id="PoWHnMbvYt9HGjduFf2e-4" value="VPC (10.0.0.0/16)" style="points=[[0,0],[0.25,0],[0.5,0],[0.75,0],[1,0],[1,0.25],[1,0.5],[1,0.75],[1,1],[0.75,1],[0.5,1],[0.25,1],[0,1],[0,0.75],[0,0.5],[0,0.25]];outlineConnect=0;gradientColor=none;html=1;whiteSpace=wrap;fontSize=12;fontStyle=0;container=1;pointerEvents=0;collapsible=0;recursiveResize=0;shape=mxgraph.aws4.group;grIcon=mxgraph.aws4.group_vpc2;strokeColor=#8C4FFF;fillColor=none;verticalAlign=top;align=left;spacingLeft=30;fontColor=#AAB7B8;dashed=0;" vertex="1" parent="PoWHnMbvYt9HGjduFf2e-3">
          <mxGeometry x="37" y="52" width="1438" height="602" as="geometry" />
        </mxCell>
        <mxCell id="PoWHnMbvYt9HGjduFf2e-5" value="Availability Zone - A" style="fillColor=none;strokeColor=#147EBA;dashed=1;verticalAlign=top;fontStyle=0;fontColor=#147EBA;whiteSpace=wrap;html=1;align=right;" vertex="1" parent="PoWHnMbvYt9HGjduFf2e-4">
          <mxGeometry x="26" y="43" width="1373" height="250" as="geometry" />
        </mxCell>
        <mxCell id="PoWHnMbvYt9HGjduFf2e-6" value="Private subnet (10.0.3.0/24)" style="points=[[0,0],[0.25,0],[0.5,0],[0.75,0],[1,0],[1,0.25],[1,0.5],[1,0.75],[1,1],[0.75,1],[0.5,1],[0.25,1],[0,1],[0,0.75],[0,0.5],[0,0.25]];outlineConnect=0;gradientColor=none;html=1;whiteSpace=wrap;fontSize=12;fontStyle=0;container=1;pointerEvents=0;collapsible=0;recursiveResize=0;shape=mxgraph.aws4.group;grIcon=mxgraph.aws4.group_security_group;grStroke=0;strokeColor=#00A4A6;fillColor=#E6F6F7;verticalAlign=top;align=left;spacingLeft=30;fontColor=#147EBA;dashed=0;" vertex="1" parent="PoWHnMbvYt9HGjduFf2e-4">
          <mxGeometry x="431.75" y="98" width="248.5" height="179" as="geometry" />
        </mxCell>
        <mxCell id="PoWHnMbvYt9HGjduFf2e-7" value="Private subnet (10.0.5.0/24)" style="points=[[0,0],[0.25,0],[0.5,0],[0.75,0],[1,0],[1,0.25],[1,0.5],[1,0.75],[1,1],[0.75,1],[0.5,1],[0.25,1],[0,1],[0,0.75],[0,0.5],[0,0.25]];outlineConnect=0;gradientColor=none;html=1;whiteSpace=wrap;fontSize=12;fontStyle=0;container=1;pointerEvents=0;collapsible=0;recursiveResize=0;shape=mxgraph.aws4.group;grIcon=mxgraph.aws4.group_security_group;grStroke=0;strokeColor=#00A4A6;fillColor=#E6F6F7;verticalAlign=top;align=left;spacingLeft=30;fontColor=#147EBA;dashed=0;" vertex="1" parent="PoWHnMbvYt9HGjduFf2e-4">
          <mxGeometry x="766" y="98" width="248.5" height="179" as="geometry" />
        </mxCell>
        <mxCell id="PoWHnMbvYt9HGjduFf2e-8" value="Public subnet (10.0.1.0/24)" style="points=[[0,0],[0.25,0],[0.5,0],[0.75,0],[1,0],[1,0.25],[1,0.5],[1,0.75],[1,1],[0.75,1],[0.5,1],[0.25,1],[0,1],[0,0.75],[0,0.5],[0,0.25]];outlineConnect=0;gradientColor=none;html=1;whiteSpace=wrap;fontSize=12;fontStyle=0;container=1;pointerEvents=0;collapsible=0;recursiveResize=0;shape=mxgraph.aws4.group;grIcon=mxgraph.aws4.group_security_group;grStroke=0;strokeColor=#7AA116;fillColor=#F2F6E8;verticalAlign=top;align=left;spacingLeft=30;fontColor=#248814;dashed=0;" vertex="1" parent="PoWHnMbvYt9HGjduFf2e-4">
          <mxGeometry x="111" y="97.5" width="235" height="180" as="geometry" />
        </mxCell>
        <mxCell id="PoWHnMbvYt9HGjduFf2e-9" value="OpenVPN" style="sketch=0;pointerEvents=1;shadow=0;dashed=0;html=1;strokeColor=none;fillColor=#DF8C42;labelPosition=center;verticalLabelPosition=bottom;verticalAlign=top;align=center;outlineConnect=0;shape=mxgraph.veeam2.open_vpn;" vertex="1" parent="PoWHnMbvYt9HGjduFf2e-8">
          <mxGeometry x="76" y="48" width="56" height="56" as="geometry" />
        </mxCell>
        <mxCell id="PoWHnMbvYt9HGjduFf2e-10" value="Availability Zone - C" style="fillColor=none;strokeColor=#147EBA;dashed=1;verticalAlign=top;fontStyle=0;fontColor=#147EBA;whiteSpace=wrap;html=1;align=right;" vertex="1" parent="PoWHnMbvYt9HGjduFf2e-4">
          <mxGeometry x="26" y="321" width="1373" height="250" as="geometry" />
        </mxCell>
        <mxCell id="PoWHnMbvYt9HGjduFf2e-11" value="Private subnet (10.0.4.0/24)" style="points=[[0,0],[0.25,0],[0.5,0],[0.75,0],[1,0],[1,0.25],[1,0.5],[1,0.75],[1,1],[0.75,1],[0.5,1],[0.25,1],[0,1],[0,0.75],[0,0.5],[0,0.25]];outlineConnect=0;gradientColor=none;html=1;whiteSpace=wrap;fontSize=12;fontStyle=0;container=1;pointerEvents=0;collapsible=0;recursiveResize=0;shape=mxgraph.aws4.group;grIcon=mxgraph.aws4.group_security_group;grStroke=0;strokeColor=#00A4A6;fillColor=#E6F6F7;verticalAlign=top;align=left;spacingLeft=30;fontColor=#147EBA;dashed=0;" vertex="1" parent="PoWHnMbvYt9HGjduFf2e-4">
          <mxGeometry x="431.75" y="376" width="248.5" height="179" as="geometry" />
        </mxCell>
        <mxCell id="PoWHnMbvYt9HGjduFf2e-12" value="Private subnet (10.0.6.0/24)" style="points=[[0,0],[0.25,0],[0.5,0],[0.75,0],[1,0],[1,0.25],[1,0.5],[1,0.75],[1,1],[0.75,1],[0.5,1],[0.25,1],[0,1],[0,0.75],[0,0.5],[0,0.25]];outlineConnect=0;gradientColor=none;html=1;whiteSpace=wrap;fontSize=12;fontStyle=0;container=1;pointerEvents=0;collapsible=0;recursiveResize=0;shape=mxgraph.aws4.group;grIcon=mxgraph.aws4.group_security_group;grStroke=0;strokeColor=#00A4A6;fillColor=#E6F6F7;verticalAlign=top;align=left;spacingLeft=30;fontColor=#147EBA;dashed=0;" vertex="1" parent="PoWHnMbvYt9HGjduFf2e-4">
          <mxGeometry x="766" y="376" width="248.5" height="179" as="geometry" />
        </mxCell>
        <mxCell id="PoWHnMbvYt9HGjduFf2e-13" value="Public subnet (10.0.2.0/24)" style="points=[[0,0],[0.25,0],[0.5,0],[0.75,0],[1,0],[1,0.25],[1,0.5],[1,0.75],[1,1],[0.75,1],[0.5,1],[0.25,1],[0,1],[0,0.75],[0,0.5],[0,0.25]];outlineConnect=0;gradientColor=none;html=1;whiteSpace=wrap;fontSize=12;fontStyle=0;container=1;pointerEvents=0;collapsible=0;recursiveResize=0;shape=mxgraph.aws4.group;grIcon=mxgraph.aws4.group_security_group;grStroke=0;strokeColor=#7AA116;fillColor=#F2F6E8;verticalAlign=top;align=left;spacingLeft=30;fontColor=#248814;dashed=0;" vertex="1" parent="PoWHnMbvYt9HGjduFf2e-4">
          <mxGeometry x="111" y="375.5" width="235" height="180" as="geometry" />
        </mxCell>
        <mxCell id="PoWHnMbvYt9HGjduFf2e-14" value="EX-ALB" style="sketch=0;outlineConnect=0;fontColor=#232F3E;gradientColor=none;fillColor=#8C4FFF;strokeColor=none;dashed=0;verticalLabelPosition=bottom;verticalAlign=top;align=center;html=1;fontSize=12;fontStyle=0;aspect=fixed;pointerEvents=1;shape=mxgraph.aws4.application_load_balancer;" vertex="1" parent="PoWHnMbvYt9HGjduFf2e-4">
          <mxGeometry x="367" y="285" width="55" height="55" as="geometry" />
        </mxCell>
        <mxCell id="PoWHnMbvYt9HGjduFf2e-15" value="IN-NLB" style="sketch=0;outlineConnect=0;fontColor=#232F3E;gradientColor=none;fillColor=#8C4FFF;strokeColor=none;dashed=0;verticalLabelPosition=bottom;verticalAlign=top;align=center;html=1;fontSize=12;fontStyle=0;aspect=fixed;pointerEvents=1;shape=mxgraph.aws4.network_load_balancer;" vertex="1" parent="PoWHnMbvYt9HGjduFf2e-4">
          <mxGeometry x="696" y="285" width="55" height="55" as="geometry" />
        </mxCell>
        <mxCell id="PoWHnMbvYt9HGjduFf2e-16" value="WEB" style="sketch=0;points=[[0,0,0],[0.25,0,0],[0.5,0,0],[0.75,0,0],[1,0,0],[0,1,0],[0.25,1,0],[0.5,1,0],[0.75,1,0],[1,1,0],[0,0.25,0],[0,0.5,0],[0,0.75,0],[1,0.25,0],[1,0.5,0],[1,0.75,0]];outlineConnect=0;fontColor=#232F3E;fillColor=#ED7100;strokeColor=#ffffff;dashed=0;verticalLabelPosition=bottom;verticalAlign=top;align=center;html=1;fontSize=12;fontStyle=0;aspect=fixed;shape=mxgraph.aws4.resourceIcon;resIcon=mxgraph.aws4.ec2;" vertex="1" parent="PoWHnMbvYt9HGjduFf2e-4">
          <mxGeometry x="457" y="142.5" width="57.5" height="57.5" as="geometry" />
        </mxCell>
        <mxCell id="PoWHnMbvYt9HGjduFf2e-17" value="Private subnet (10.0.7.0/24)" style="points=[[0,0],[0.25,0],[0.5,0],[0.75,0],[1,0],[1,0.25],[1,0.5],[1,0.75],[1,1],[0.75,1],[0.5,1],[0.25,1],[0,1],[0,0.75],[0,0.5],[0,0.25]];outlineConnect=0;gradientColor=none;html=1;whiteSpace=wrap;fontSize=12;fontStyle=0;container=1;pointerEvents=0;collapsible=0;recursiveResize=0;shape=mxgraph.aws4.group;grIcon=mxgraph.aws4.group_security_group;grStroke=0;strokeColor=#00A4A6;fillColor=#E6F6F7;verticalAlign=top;align=left;spacingLeft=30;fontColor=#147EBA;dashed=0;" vertex="1" parent="PoWHnMbvYt9HGjduFf2e-4">
          <mxGeometry x="1087" y="97.5" width="248.5" height="179" as="geometry" />
        </mxCell>
        <mxCell id="PoWHnMbvYt9HGjduFf2e-18" value="Private subnet (10.0.8.0/24)" style="points=[[0,0],[0.25,0],[0.5,0],[0.75,0],[1,0],[1,0.25],[1,0.5],[1,0.75],[1,1],[0.75,1],[0.5,1],[0.25,1],[0,1],[0,0.75],[0,0.5],[0,0.25]];outlineConnect=0;gradientColor=none;html=1;whiteSpace=wrap;fontSize=12;fontStyle=0;container=1;pointerEvents=0;collapsible=0;recursiveResize=0;shape=mxgraph.aws4.group;grIcon=mxgraph.aws4.group_security_group;grStroke=0;strokeColor=#00A4A6;fillColor=#E6F6F7;verticalAlign=top;align=left;spacingLeft=30;fontColor=#147EBA;dashed=0;" vertex="1" parent="PoWHnMbvYt9HGjduFf2e-4">
          <mxGeometry x="1087" y="375.5" width="248.5" height="179" as="geometry" />
        </mxCell>
        <mxCell id="PoWHnMbvYt9HGjduFf2e-19" value="NGW" style="sketch=0;outlineConnect=0;fontColor=#232F3E;gradientColor=none;fillColor=#8C4FFF;strokeColor=none;dashed=0;verticalLabelPosition=bottom;verticalAlign=top;align=center;html=1;fontSize=12;fontStyle=0;aspect=fixed;pointerEvents=1;shape=mxgraph.aws4.nat_gateway;" vertex="1" parent="PoWHnMbvYt9HGjduFf2e-4">
          <mxGeometry x="277" y="201.5" width="56" height="56" as="geometry" />
        </mxCell>
        <mxCell id="PoWHnMbvYt9HGjduFf2e-20" value="WAS" style="sketch=0;points=[[0,0,0],[0.25,0,0],[0.5,0,0],[0.75,0,0],[1,0,0],[0,1,0],[0.25,1,0],[0.5,1,0],[0.75,1,0],[1,1,0],[0,0.25,0],[0,0.5,0],[0,0.75,0],[1,0.25,0],[1,0.5,0],[1,0.75,0]];outlineConnect=0;fontColor=#232F3E;fillColor=#ED7100;strokeColor=#ffffff;dashed=0;verticalLabelPosition=bottom;verticalAlign=top;align=center;html=1;fontSize=12;fontStyle=0;aspect=fixed;shape=mxgraph.aws4.resourceIcon;resIcon=mxgraph.aws4.ec2;" vertex="1" parent="PoWHnMbvYt9HGjduFf2e-4">
          <mxGeometry x="787" y="144" width="57.5" height="57.5" as="geometry" />
        </mxCell>
        <mxCell id="PoWHnMbvYt9HGjduFf2e-21" value="" style="endArrow=classic;html=1;rounded=0;entryX=0.5;entryY=1;entryDx=0;entryDy=0;entryPerimeter=0;" edge="1" parent="PoWHnMbvYt9HGjduFf2e-4" source="PoWHnMbvYt9HGjduFf2e-14" target="PoWHnMbvYt9HGjduFf2e-16">
          <mxGeometry width="50" height="50" relative="1" as="geometry">
            <mxPoint x="577" y="254" as="sourcePoint" />
            <mxPoint x="627" y="204" as="targetPoint" />
            <Array as="points">
              <mxPoint x="487" y="313" />
            </Array>
          </mxGeometry>
        </mxCell>
        <mxCell id="PoWHnMbvYt9HGjduFf2e-22" value="" style="endArrow=classic;html=1;rounded=0;exitX=1;exitY=0.5;exitDx=0;exitDy=0;exitPerimeter=0;" edge="1" parent="PoWHnMbvYt9HGjduFf2e-4" source="PoWHnMbvYt9HGjduFf2e-16" target="PoWHnMbvYt9HGjduFf2e-15">
          <mxGeometry width="50" height="50" relative="1" as="geometry">
            <mxPoint x="557" y="284" as="sourcePoint" />
            <mxPoint x="607" y="234" as="targetPoint" />
            <Array as="points">
              <mxPoint x="724" y="171" />
            </Array>
          </mxGeometry>
        </mxCell>
        <mxCell id="PoWHnMbvYt9HGjduFf2e-23" value="" style="endArrow=classic;html=1;rounded=0;entryX=0.5;entryY=1;entryDx=0;entryDy=0;entryPerimeter=0;" edge="1" parent="PoWHnMbvYt9HGjduFf2e-4" source="PoWHnMbvYt9HGjduFf2e-15" target="PoWHnMbvYt9HGjduFf2e-20">
          <mxGeometry width="50" height="50" relative="1" as="geometry">
            <mxPoint x="847" y="284" as="sourcePoint" />
            <mxPoint x="897" y="234" as="targetPoint" />
            <Array as="points">
              <mxPoint x="816" y="313" />
            </Array>
          </mxGeometry>
        </mxCell>
        <mxCell id="PoWHnMbvYt9HGjduFf2e-24" value="" style="endArrow=classic;html=1;rounded=0;exitX=1;exitY=0.5;exitDx=0;exitDy=0;exitPerimeter=0;" edge="1" parent="PoWHnMbvYt9HGjduFf2e-4" source="PoWHnMbvYt9HGjduFf2e-20" target="PoWHnMbvYt9HGjduFf2e-25">
          <mxGeometry width="50" height="50" relative="1" as="geometry">
            <mxPoint x="847" y="284" as="sourcePoint" />
            <mxPoint x="897" y="234" as="targetPoint" />
          </mxGeometry>
        </mxCell>
        <mxCell id="PoWHnMbvYt9HGjduFf2e-25" value="MySQL" style="sketch=0;outlineConnect=0;fontColor=#232F3E;gradientColor=none;fillColor=#C925D1;strokeColor=none;dashed=0;verticalLabelPosition=bottom;verticalAlign=top;align=center;html=1;fontSize=12;fontStyle=0;aspect=fixed;pointerEvents=1;shape=mxgraph.aws4.rds_instance;" vertex="1" parent="PoWHnMbvYt9HGjduFf2e-4">
          <mxGeometry x="1107" y="143.25" width="59" height="59" as="geometry" />
        </mxCell>
        <mxCell id="PoWHnMbvYt9HGjduFf2e-26" value="" style="endArrow=classic;html=1;rounded=0;entryX=0;entryY=0.5;entryDx=0;entryDy=0;entryPerimeter=0;" edge="1" parent="PoWHnMbvYt9HGjduFf2e-4" source="PoWHnMbvYt9HGjduFf2e-9" target="PoWHnMbvYt9HGjduFf2e-16">
          <mxGeometry width="50" height="50" relative="1" as="geometry">
            <mxPoint x="337" y="304" as="sourcePoint" />
            <mxPoint x="387" y="254" as="targetPoint" />
          </mxGeometry>
        </mxCell>
        <mxCell id="PoWHnMbvYt9HGjduFf2e-27" value="IGW" style="sketch=0;outlineConnect=0;fontColor=#232F3E;gradientColor=none;fillColor=#8C4FFF;strokeColor=none;dashed=0;verticalLabelPosition=bottom;verticalAlign=top;align=center;html=1;fontSize=12;fontStyle=0;aspect=fixed;pointerEvents=1;shape=mxgraph.aws4.internet_gateway;" vertex="1" parent="PoWHnMbvYt9HGjduFf2e-3">
          <mxGeometry x="6" y="336" width="56" height="56" as="geometry" />
        </mxCell>
        <mxCell id="PoWHnMbvYt9HGjduFf2e-28" value="" style="endArrow=classic;html=1;rounded=0;" edge="1" parent="PoWHnMbvYt9HGjduFf2e-3" source="PoWHnMbvYt9HGjduFf2e-27" target="PoWHnMbvYt9HGjduFf2e-14">
          <mxGeometry width="50" height="50" relative="1" as="geometry">
            <mxPoint x="284" y="426" as="sourcePoint" />
            <mxPoint x="334" y="376" as="targetPoint" />
          </mxGeometry>
        </mxCell>
        <mxCell id="PoWHnMbvYt9HGjduFf2e-29" value="User" style="sketch=0;outlineConnect=0;fontColor=#232F3E;gradientColor=none;fillColor=#232F3D;strokeColor=none;dashed=0;verticalLabelPosition=bottom;verticalAlign=top;align=center;html=1;fontSize=12;fontStyle=0;aspect=fixed;pointerEvents=1;shape=mxgraph.aws4.user;" vertex="1" parent="PoWHnMbvYt9HGjduFf2e-2">
          <mxGeometry y="325" width="78" height="78" as="geometry" />
        </mxCell>
        <mxCell id="PoWHnMbvYt9HGjduFf2e-30" value="Administrator" style="sketch=0;outlineConnect=0;fontColor=#232F3E;gradientColor=none;fillColor=#232F3D;strokeColor=none;dashed=0;verticalLabelPosition=bottom;verticalAlign=top;align=center;html=1;fontSize=12;fontStyle=0;aspect=fixed;pointerEvents=1;shape=mxgraph.aws4.user;" vertex="1" parent="PoWHnMbvYt9HGjduFf2e-2">
          <mxGeometry y="186" width="78" height="78" as="geometry" />
        </mxCell>
        <mxCell id="PoWHnMbvYt9HGjduFf2e-31" value="" style="endArrow=classic;html=1;rounded=0;" edge="1" parent="PoWHnMbvYt9HGjduFf2e-2" source="PoWHnMbvYt9HGjduFf2e-29" target="PoWHnMbvYt9HGjduFf2e-27">
          <mxGeometry width="50" height="50" relative="1" as="geometry">
            <mxPoint x="290" y="346" as="sourcePoint" />
            <mxPoint x="340" y="296" as="targetPoint" />
          </mxGeometry>
        </mxCell>
        <mxCell id="PoWHnMbvYt9HGjduFf2e-32" value="" style="endArrow=classic;html=1;rounded=0;" edge="1" parent="PoWHnMbvYt9HGjduFf2e-2" source="PoWHnMbvYt9HGjduFf2e-30" target="PoWHnMbvYt9HGjduFf2e-9">
          <mxGeometry width="50" height="50" relative="1" as="geometry">
            <mxPoint x="230" y="356" as="sourcePoint" />
            <mxPoint x="280" y="306" as="targetPoint" />
          </mxGeometry>
        </mxCell>
        <mxCell id="PoWHnMbvYt9HGjduFf2e-34" value="&lt;font style=&quot;font-size: 18px;&quot;&gt;http/https 접속&lt;/font&gt;" style="text;html=1;align=center;verticalAlign=middle;whiteSpace=wrap;rounded=0;" vertex="1" parent="PoWHnMbvYt9HGjduFf2e-2">
          <mxGeometry x="327" y="378" width="87" height="30" as="geometry" />
        </mxCell>
        <mxCell id="PoWHnMbvYt9HGjduFf2e-33" value="&lt;font style=&quot;font-size: 18px;&quot;&gt;ssh 접속&lt;/font&gt;" style="text;html=1;align=center;verticalAlign=middle;whiteSpace=wrap;rounded=0;" vertex="1" parent="PoWHnMbvYt9HGjduFf2e-2">
          <mxGeometry x="515" y="192" width="87" height="30" as="geometry" />
        </mxCell>
        <mxCell id="PoWHnMbvYt9HGjduFf2e-35" value="" style="shape=image;verticalLabelPosition=bottom;labelBackgroundColor=default;verticalAlign=top;aspect=fixed;imageAspect=0;image=data:image/png,iVBORw0KGgoAAAANSUhEUgAAAzEAAAGaCAIAAACwsFrTAAAgAElEQVR4Aex9+VtTV9f29x/lh1wxV5ryWpEqRQpFSikqKhQUW2t9rFMdi/OIKDO2aquvWq0DWMfqo1aqSBXHKogIAhJmkJTxCjlf6Xre9WzPsMmJJycnyeLih5191tnDve+zcp+1h/w/gf4IAUKAECAECAFCgBAgBPyNwP/zdwOofkKAECAECAFCgBAgBAgBgTQZkYAQIAQIAUKAECAECAH/I0CazP9jQC0gBAgBQoAQIAQIAUKANBlxgBAgBAgBQoAQIAQIAf8jQJrM/2NALSAECAFCgBAgBAgBQoA0GXGAECAECAFCgBAgBAgB/yNAmsz/Y0AtIAQIAUKAECAECAFCgDQZcYAQIAQIAUKAECAECAH/I0CazP9jQC0gBAgBQoAQIAQIAUKANBlxgBAgBAgBQoAQIAQIAf8joFqTtbY66J8QIAQIAUKAECAECAFCwDsElNSfN5rM4Rykf0LAOwRaWx2dzg76JwR8igDRzKfwBn3hxJ+gH2L/drC11UGajHSkIRAgZ+dfXxAitRPNQmSgfdRN4o+PgKViAQHSZIaQI94FloLsLnJ25JV0QIBopgPIQVwF8SeIB9cIXSNNRprMKAiQszOCRwj6NhDNgn6IfdpB4o9P4aXCSZMZRZEEWdDLi+6QsyN/pAMCRDMdQA7iKog/QTy4RugaaTLSZEZBgJydETxC0LeBaBb0Q+zTDhJ/fAovFU6azCiKxIvAUpDdQs6O/JEOCBDNdAA5iKsg/gTx4Bqha6TJSJMZBQFydkbwCEHfBqJZ0A+xTztI/PEpvFQ4aTKjKJIgC3p50R1yduSPdECAaKYDyEFcBfEniAfXCF0jTUaazCgIkLMzgkcI+jYQzYJ+iH3aQeKPT+GlwkmTGUWReBFYCrJbyNmRP9IBAaKZDiAHcRXEnyAeXCN0jTQZaTKjIEDOzggeIejbQDQL+iH2aQeJPz6FlwonTWYURRJkQS8vukPOjvyRDggQzXQAOYirIP4E8eAaoWukyUiTGQUBcnZG8AhB3waiWdAPsU87SPzxKbxUOGkyoygSLwJLQXYLOTvyRzogQDTTAeQgroL4E8SDa4SukSYjTWYUBMjZGcEjBH0biGZBP8Q+7SDxx6fwUuGkyYyiSIIs6OVFd8jZkT/SAQGimQ4gB3EVxJ8gHlwjdI00GWkyoyBAzs4IHiHo20A0C/oh9mkHiT8+hZcKJ01mFEXiRWApyG4hZ0f+SAcEiGY6gBzEVRB/gnhwjdA10mSkyYyCADk7I3iEoG8D0Szoh9inHST++BReKpw0mVEUSZAFvbzoDjk78kc6IEA00wHkIK6C+BPEg2uErvlTk/3xuCo6erLVYkpIiLtX/Vz6Lb41a6fVYlqyfGl9R4/0KuUEGQKqnN2OrM1Wi4nzf+TYQSM8YNQGoyGgimadzo77jys/jJ7EMi3Mbpk377NTpT+3dDm07V1Hb7ujs1nbMqk0bRFQxZ/AclNEP22p4l1phtBkVotpzbpvG7qcIpFBmkwESHB/DGJn593DSXf5AgFVNJPVZKjPVqxc0tTWqEkjHZ3NmzZnhtktO7I2a1IgFeIjBFTxJ1A0GdHPR2zxolijaDK7zfzzL2dFmoM0mQiQ4P6oytk1tTbUNdXC//4f91otpugp75fd/g0zmzteefE80C1Bj4AqmrGa7FrZFQDn+ctnm7esA2VWUJzT0dv+9qA1d7xatnyR1WIiTfb2YPq0BFX8CRQ3RfTzKWdUFe5/TRYx8X9S01JkZzBJkwW3CBP1TpWzY1l+5NhBq8X0YfSk+48r2XxKEwJSBNTSDOcuUZN1OjsaWl4u/NfnVospIyO1wVEvrUVtDn0pqkXMX/Zq+YPtNLKbIvrhMPk94X9NZrWYjp46DbJMNIMpq8nuP6tdnbk2cnK41WKaGP7u6m/X3n9Wi9/uuEbt0o3fz165OnPWDLvNPDH83Q1bNj971VrX3l20f39c3IdWiylycnhecfHLjtd4r8M52Py6//zV63PnzQmzW6wW07Tpif97/GeRDWtPaQ0R0NbZXbpy3m4zvzfeVlZ+nX3M7jyoiIoMx3yYXFi2fNGLxuff7S+cGjflH25M2LJtQ21DDXtjp7Pjz2ePvs1cGTl5Atjs3LW1+sVTkQ19NDgCamkmq8k6nR3AnJkzP61rqu10dnT0tj96+gDpAWvOfr16oeP1f6NobFGnz/w8NW6K3WbO3rNj+06ZxZG0INKYRFLLH+yFrCbr6G2/XXlr8ZKvJoa/C14le88O1vPAXTNnfvqk5vH2HZsmhr87Mfzdqzf+E7Jt6XKcLDk2e1YSfM2t/XZF+Z3fZ8781GoxifjD8V2yE6yi27EXlPA1AobQZJfLbl4uuzkx/F3RDKZIkzX3DhwrOQPcxSUdVospLu7D24+egDhATfZpUoLdZmbNFvxrwYJ/LWBzrBZTdl5eU08f3NvU05edl2e3me028yeJ8UnTPgFltnzlN3Vt3RqKDypKFgFtnV19c92cObOtFtPOXVvZ2aV9B4qtFtOcObPrm+vwm3XevM8WLMgQceOThNiHT+/jE3jl+iVQY7ExkTOTEyE9NW5K5aM7aEMJ4yOglmaskMLedfS2b9u+0WoxgSbreN1+9PghcBciFm3fscnxf9PoWNSWbRveG28Dy5JfTtKXIgJr/IRa/mCPpJqsrae1+Pt80feU1WJKS5tZU18NN8JdSUnxq1YvBcJ8/PGHfz573OnsaGprXLN2uYhv/xM2DgpkRRXfdxH9cIyMkDCKJgM9JJrBFGmyxm7nwWPH4z+OPXLyVGP36IaAR7UvP58/z2oxbd+V1dw74HAOoiabGP7u2StXm1/3P21oXrxsMRB3Yvi7p85fYDM/TUp4XNcIEuHnX87abea4uA9vPXgMOY9qX0IA71jJGVkZQZkaIqChs4O4RV7BbqvFNGPGJ8/+z8E1OOozMlKtFtMPh76Hxw/90czkxN9v3+h43d7a3XL85BGQ/lu2bWjrae10djyufvhJQqzdZj7800GIfLR0ObJ3b7daTKvXLNd8/50RXEOwtkEtzVBIsXOXVbVPp02Lt1pMa79d0drdcunf50FjZa5fBWRraHmZm79L9O2IRdlt5q3bN1TVPnlS87ixtaHT2UGTR4HCN7X8wX5JNVlTW2N+4Z6PP/7wyvVLbT2tHb3tdx5UAK9QUcFdEEI7WXK8tvH5o6oHYFxQnAOTRYd/OujoeNXxuv3e47spKdPhyw5L8MR3Ef1wmPyeMIomczgHqxod6XM+Y/dgijQZfP039fQ1v+5HKXDw2HGrxfT10sV17aOhLNRkewoKQKU5nIOXy26Cc5Rmvjfedr3irsM5WNfWvXDRQqvFJJJfPxw9Ovq9++1aUIFYLyU0R0BDZwfPFUxT2m3mS1fOQ05Z+fX3xtumxk15XP0QckCTRUWG3668hU9jR2876LmkpPhndVWdzo4fDn0vlV+Vj+5ET3kfX1vxdkoYGQG1NEMhde7Smbqm2trG52cvlCYljQqyieHvXiu70tTWuGjRfKvFtPBfnze0vMS+t/W0btqSya45w6KWLV8k2oNCX4qIm8ETavmD3ZFqMrjU2t3CBvLBI23bvhEyUZOhxoK7ntVXz5jxidViyivYzd5+u/JWVOTowh6098R3Ef1wmPyeMJAmA/HEzmDKarLalo6jp05v2LJ5dsrM+PhYeCdInjmtuqmF1WQXr99A0YBC7XLZTaXM+89exH/8n9JE0WCrxbRg4ZcvWrvwXkr4AgHNnV1Ll2P1mtHYPoS7UGlBbAOePfCAS5YufNXexD6NV65fwn0Drd0ta79dIWUF5Ex+f3xFZTl7L6WNjIBamqGQEhEgzG45evxQx+v2P589/vjj0SWqx08eEXX8wq+/IIvYLZxSS/pSFEFn2I9q+YMdUdJkz18+O3h4/7r1q2cmJ8bGRALNULXDXR/FfsCuo+h0dtysuPHeeJvdZv7t5jWsotPZUddUy64n89B3Ef1YDP2bNpYmE81gSjXZxes3YHU/EDcm5oOYmA+sFpNUk3HkF+gJkVDDj/HxsTOSp4n+v166uKa5zRdChMpEBDR3dp3OjpJfTlotJgh3wQozNmyG68nQA+LTeK3sCn6bosOKnDxhZnKi9P9mxQ28kRIGR0AtzaSaLDYmcsvW9Y+ePoD4BBqwk5sAAssiVpNJLZFjdBZGkPEHuyPVZB297cdOHGaXIX4c/yEsVEWPBHfhVhIsTUQtzBdpMuQV33ehGdEPkfRXwliaTDSDuW7T6CpaPMf/z/qm6TNGd5Tsys1BhQRzl2+vye4+fRYbO7rn7syvV1AlUEJPBNR+WeIzI3V2eAkj/CW/nLxWdsVuM+PqfrCBOBl6QLwRxBy8njo6m1esXGK1mDZu+haWl6EZJQIOAbU040gu6PvDp/c/ih19Myz55aQIDaU4GWkyEVAB9FEtf7BrUjeFe8APHTmAhw+LPBJfk7033iZ6IRRpMg99F2kyHCa/JwynydgZzFmzk1lN9u+bt+02c3T05D8eV4FWaOrp27RtqyZxsueO9rkZ6VaLacOWzbgT0+EcfPi8/o/HVbg0TU+NEmp1aejs8LnC+co1334D53zuO1CMVzFOlpj4UVXtf0+1wElPPH0qv3DP6Nko0+JZs6a2xpsVN2iBP4un8dNqaTamJmtqbfhq4ehZZSJlj+vJFi2aD9+4nKLoS9H4zIEWquUP9kuqyY6fPIJbd8EM1yYil5Q0Gb4J7P9xL7ue7Mr1S7DdBNeTeeK7iH44TH5PGFGTNfcO5BYX4eoNjJP9Xvlg0vvvvTfedu7f10bPEusdOPfva7A/7u3jZA7n4L5Dh6wWk91m/u7HH+vauptf95dVPpidMtNuMxd8//0rZmNBqKklffqrobNjn6uKyvLJ749/b7wtcvKEqMjwOw8q2KvwVmq1mL78ci7MRsnumIM3WqvFtHTZwqrapx297XiY+4IFGXBCFVsspQ2LgFqacYQU9vH0LyfgDJ2t2zc8f/kMDpWFfZd2m/nCr7+AJacojGcsXbawqa2xtvE5nqCBtVDCCAio5Q+2WarJMIxa+fCP0a3ir9sP/3QQtqONqcnwvXFi+LulZ0+29bS29bT+dvPaJwn/WRWNmswT30X0w2Hye8KImszhHPx7anLuvDkgy1CT1Xf0fLN6JcimTxLj4+NjJ4a/m/H5XE3iZLD1cuXa1agFMTF33pwn9U366JJQrkVDZ8c+V/jqKd04iXGyqA8mTn5/PI44JNasXY4TCtKVH2ATOXnCleuX2OoobXAE1NKMI6Swp209rTl5/zn5gmWR3WYu/j4f57v5RcH+OLx9d84OvBErooTfEVDLH2ywVJPVNj6HMxTD7JZp0+JjYyKnxk2ZPSuJjbkqxck6nR2Vj+7AGdfIGavF9FnqjA+jJ7H7Lj30XUQ/HCn/JgyqyRzOwWu370AMDDWZwzn47FXrhi2bYW/m3HlzfrtTqdV6MhBDDV3O0ku/suf4Hzr+M5yyEcpqSZ++a+jsRA/VyZLRA1NEq/vBBldv3H3wx7Jl/wLKTZ+ecLLkmGhSsqO3vfLhH3hQe+TkCTt3bX1SM3p4I/0HEAJqacYXUtjxjtft129eZQ9kX71m+e3KW+y8Er8oR8erwuJcWOL9WeqMK9cvsfdiRZTwLwJq+YOtlWqyTmfH0+d/Ll22MMxuCbNbli5b+OezR+iR4LQUjibrdHbUNtRs2bYBz6/+bn/hk5rH7L5LqN0T30X0w5Hyb8Kfmkyfb3qqJVAQ8NrZjfkIgSZjD4/FW0QeEPMpEawI+I5mwYoY9YtFwOD8qW18DueWSXecsL2gtGERIE02GCiSJejb6SNnhz8XLTpcEZ5J0mSG9U0+apiPaOaj1lKxRkPAOPx51d50+dolUTgf1vhLF84aDUZqjxICpMlIkxkFAW2dXVtPa4Ojvv11GyybVXJSpMmUXEOw5mtLs2BFifqlhIBB+POsvhp+Ji5z/SrYdcSu8c9ct1Kk1ZS6Q/lGQ4A0mVEUSdCHwcbsoLbO7vfbN2BxGCyALSjOkV2dQ5rMaC7J1+3Rlma+bi2VbzQEDMKfjt72kyXHWReHK/3nzfsMf8LcaOhRe8ZEgDQZaTKjIKChs4Nd5bApaWrclGMnDittYSNNNqaPCDIDDWkWZMhQdzxBwFD8eVLzeOeurfCLTHabefaspKPHD4l+Js6TTpGNcRAgTWYURTJmGCnoDQzl7IzziFJLtEWAaKYtnqFWGvEn1EZc5/6SJiNNZhQEyNnp/PCHZnVEs9Acd616TfzRCkkqRxYB0mRGUSRBHwYbs4Pk7GQfUcrUFgGimbZ4hlppxJ9QG3Gd+0uajDSZURAgZ6fzwx+a1RHNQnPcteo18UcrJKkcWQRIkxlFkYwZRgp6A3J2so8oZWqLANFMWzxDrTTiT6iNuM79JU1GmswoCJCz0/nhD83qiGahOe5a9Zr4oxWSVI4sAqTJjKJIgj4MNmYHydnJPqKUqS0CRDNt8Qy10og/oTbiOveXNBlpMqMgQM5O54c/NKsjmoXmuGvVa+KPVkhSObIIkCYziiIZM4wU9Abk7GQfUcrUFgGimbZ4hlppxJ9QG3Gd+0uajDSZURAgZ6fzwx+a1RHNQnPcteo18UcrJKkcWQRIkxlFkQR9GGzMDpKzk31EKVNbBIhm2uIZaqURf0JtxHXuL2ky0mRGQYCcnc4Pf2hWRzQLzXHXqtfEH62QpHJkESBNZhRFMmYYKegNyNnJPqKUqS0CRDNt8Qy10og/oTbiOvdXY03W2uqgf0KAECAECAFCgBAgBAgBLxAQFP7+n0K+YnZrqyPoYznUQd8hwHk/UOQcXSAEVCJANFMJGJm/gQDx5w046IPWCHAIRpqMpjV1RYDDRa1pT+WFLgJEs9Adey16TvzRAkUqQxEBDsFIk+mqSHwXfwqUkjlcVOQvXSAEVCJANFMJGJm/gQDx5w046IPWCHAIRpqMNJmuCHC4qDXtqbzQRYBoFrpjr0XPiT9aoEhlKCLAIRhpMl0VSaBEs3zXTg4XFflLFwgBlQgQzVQCRuZvIED8eQMO+qA1AhyCkSYjTaYrAhwuak17Ki90ESCahe7Ya9Fz4o8WKFIZighwCEaaTFdF4rv4U6CUzOGiIn/pAiGgEgGimUrAyPwNBIg/b8BBH7RGgEMw0mSkyXRFgMNFrWlP5YUuAkSz0B17LXpO/NECRSpDEQEOwUiT6apIAiWa5bt2crioyF+6QAioRIBophIwMn8DAeLPG3DQB60R4BCMNBlpMl0R4HBRa9pTeaGLANEsdMdei54Tf7RAkcpQRIBDMNJkuioS38WfAqVkDhcV+UsXCAGVCBDNVAJG5m8gQPx5Aw76oDUCHIKRJiNNpisCHC5qTXsqL3QRIJqF7thr0XPijxYoUhmKCHAIRppMV0USKNEs37WTw0VF/tIFQkAlAkQzlYCR+RsIEH/egIM+aI0Ah2CkyUiT6YoAh4ta057KC10EiGahO/Za9Jz4owWKVIYiAhyCkSbTVZH4Lv4UKCVzuKjIX7pACKhEgGimEjAyfwMB4s8bcNAHrRHgEIw0GWkyXRHgcFFr2lN5oYsA0Sx0x16LnhN/tECRylBEgEMw0mS6KpJAiWb5rp0cLiryly4QAioRIJqpBIzM30CA+PMGHPRBawQ4BCNNRppMVwQ4XNSa9lRe6CJANAvdsdei58QfLVCkMhQR4BCMNJmuisR38adAKZnDRUX+0gVCQCUCRDOVgJH5GwgQf96Agz5ojQCHYKTJSJPpigCHi1rTnsoLXQSIZqE79lr0nPijBYpUhiICHIKRJtNVkQRKNMt37eRwUZG/dIEQUIkA0UwlYGT+BgLEnzfgoA9aI8AhGGky0mS6IsDhota0p/JCFwGiWeiOvRY9J/5ogSKVoYgAh2D6abLalo7DJ07OnTcnzG6xWkwTw9/N+HzusZIzLzte+y4qM2bJzb0DewoKrBZT/Mex95+9kNrXtXUvXLTQajGtXLOqocvpcA5uzdpptZjY/5iYDzZu3XL/WS3eXt/Rs2T5UqvFZLeZf/7lLOZj4nLZTavFFB09+Y/HVZgZCgkOFxX5KwidnR1FhXlxsVFWiykiPGzTxswXL2pF9iMjI+XlNxfMzwizj7NaTLOSk345UzI4OIhmdXUvYmMic3OyMYdNVN69Y7WYSktOsZmUDlAEvKDZ8NDQxQvn0lKT7TZzmH3c8mVfVz194na7WQQ8sWHtKR2gCHjBH0EQqqurli/7Osw+zm4zf56RVlFRLuKPCA23211RUf55RhpSrrq6SmQj+jg4OHjk8KGE+BirxRQVObGoMK+np0dkI/rY09NTVJgXFTnRajElxMccOXyI9YoiY0EQHj64PzUuuqamGi550UhpmZQjQoBDMD00WXPvQOmlXyMnh7M6BtMzkqfdfvTEj3LkannFe+NtVovpxC/npM34vfLBpPffY69KNRn0ZWL4uxev34ASUJONPgYJcfeqn4tKJk0m4ijnY23t84T4mDD7uDWrlhcX5a9dsyIiPCwiPOzSxfPo8lwuV3FRvtVimpb0cW5Odm5O9qzkJKvFtGTxV11dnVA4aTIOyEF2iePyZHva39e3cf23VotpbnpKQX7O1s0bgGM3fruG9p7YoDElAhoBtfwRBKGiojwiPCwmevKurG27srbFRE+228xnSk+jjxIB4na7z5SettvM4LKQchUV5SJL/Njf15e5dpXdZl60cH5xUf6ihfPtNnPG3NT29na0ESXa29sz5qaC8yzIz5mbnmK1mDLXrurv6xNZwkeXy5W9a8eG9WuHh4YEQfCikbLFUqYIAQ7BfK7JmnsHDp84CbGxKVMmfffjj/eqn1c3tVyvuJu5cT3kx8V96EdZ9tzRPjcjnY2Esfqp+MAPVotp+oxP/6xvgnzQZEuWL63v6HE4B5t6+s5f+y0u7kNWfrGazGoxrVn3LcTYsGTSZCKOKn0cHhrasH5tQnwMvrcJgtDS4siYm5oQH9PY0AA3Pnxwf8L4dwoLcsGVCIIwMjJSUnLSbjPv37d3ZGREEATSZEogB18+x+VJO+t2u3848H1EeNiF82eBKsCx9LRZX8xLf/16NA7hiY20ZMoJUARU8QfYkjwjkZVH4KOSEqc2Nf7HR4mgqHr6ZEpUBCuPamqqE+JjFszPAMqJ7N1u97GfDrM6D13cDwe+l1V+Lpcra+e2iPAw1HnDQ0OFBbl2m/ny5Uui8uFjU2NDYsJHt26WwUe1jZQtkzKlCHAI5nNN9sefVaBXUtNSHtW+RFHicA429w6c+/e1ieHvWi2mhYsW1rV1s1f1TO87dMhqMcXFfSgKaKFc27Rta1NPHzRJpMkg88yvV+w2M4bTUJOlzUmdGP6udAaTNJmUprI5bW2tydM/2bF9i8vlYg26ujo7Ov77dnj0yKHISROqq56yNi6X6+XLeryRNBkLTnCnOS5P2nGY9T5+7ChSBWz279sbGxNZV/cCJH55+U2+jbRkyglQBFTxRxCESxfP221mlDLQ60sXz1stpksXz0tBcLvd+/ftnRIVwb5qQuaE8e88fHBfesvr1z1fzEtftnQRG+KCTHxzEN3V1NiQEB+TvWsHS2zIxEiY6Jafj/+EpXnRSFFp9FEJAQ7BfKvJcLXWB5ETyyofSGVWc+9AbnGR1WJ6b7ztanmFSPRUNTqK9u8HSRc5OXzTtq1PG5pFhdx/Vrs6cy1MjEZODt++K+vxiwa0+eNxVXT05NEH48bv569eT5uT+s/MvWXl2tUPn9ej2a0Hjz/4Z7r9WMkZzHQ4B69X3H1vvI1tG64nwzgZ2GNFB48ddzgHUZNt3LolK2cPG0IDe9JkSmQV5YMmU/IgaHz0yCElX4Y2pMkQiqBPcFye530/feoEajKluzyxUbqX8g2LgCr+DA8Pb9qYmTz9k7a2VrZH4HD27M6SBrF6e3u/nD93yeKv+vr+Ym+pvHvHbjOfPnWCzYT040cPJ4x/5+iRQ+wlt9udn7cnJnpybe1zNh/SVy5f+nsBblnZb+ylgYGBNauWz56ZhIs68CoovJ+P/wQ5XjQSi6IEHwEOwXyryTDOhAvkWcUDaVywlVNYCDkQiJo7b878BfNx2RkkEhLi7j59hoVcvH4D1FhMzAczkqdBmp0JRan0aVICxLGwwPQ5n1U1OqAolFCs0kJBmT7ns5rmNqxUNk52+9GTKVMmWS0mkSbbmrWzqtGRPucz0QwmaTI+ZfHq8NDQls3r7Tbz8WNHcV4Sr2Li0aMHEeFh6WmzGhpeYqYoQZpMBEgQf+S4PA97DZPm0i9a9nZPbFh7SgcKAqr48/p1T3rarDWrlg8MDLAd7O7uTk2ZIc0XBOHly/qpcdHS/UYcH3Xu7BmrxVR59w5bhSAIpSWnZPMFQSgsyJV9qcjNyZbNr7x7JzHhI5xs9aKRorbRRyUEOATzrSa7+/RZbOwUq8X0w9GjqGlEieqmluSZ06wW0+bt25p7BzAQZbWYZiRPu3b7TvPr/sZu55GTp2CWE6cR71U/T0iIs9vMB3861vy63+EcbOhy7ty9m10ZhppsYvi7R06eaurpe9nx+rsff2TnGaE9x0pGGf9B5MRbDx5DTk1zG2ip4gM/sG2WarLm3oHvfvwRon3XK+6ycbKtWTsdzsHLZTdFM5ikyZTIKs2vr69LmT0d9hnt2L7ldvkt6b4hl8t16OABu80MO56OHjnkaG4WvZ6Cv0v7bGZxUb70f13matp3KQU/QHM4Ls/DHsGSbaWVOlCIJzYeVkdmhkJAFX9Ae23amDk8PMz2AiJS6WmzpOvDwBft37eXtRcEAYrKXLtqaOi/G8bBprTk1ITx7zx+9FB0C2wYP3f2jChfEITcnOzEhI9evWoSXSotOWW3me/fq2TzYXU/O9HpRSPZAinNQYBDMN9qMpREED1ilQ2mUZNhjApEj2i6E6NWnyYlPK5rdEdUlj0AACAASURBVDgHYRGYKAIH8So82AIbsKegAASfwzlY1eiYOWuG1WLauXs3NuNe9XOYJN136BBkwn5MVqVBPjRv4dcLH9W+rG5qufv02aZtW0HkfbN6JSz8x8AbaLKmnr7svDx2BpM0GYev0kuDg4MXzp+FrZQgzs6UnhaFzdxud0PDy00bMyPCwyAaunTxwqamRiwNXAwGSmUTdBYGwhXQCY7L86Rfjx89TIiPYZdsS+/yxEZ6F+UEBAKq+KMUTwJNlpoyo7u7W9Tr+/cq7Taz1NtwQmtKQS+lQ3yGhgYz166SrV02tNbU2DA9KYFdyuZFI0XdpI9KCHAIppMm8yROBvIF42RfL11c1/7Gqv+L12/gmV6N3c7V366V/Vq1WkyT3n/v93+Wr6Emw1MqpEEsUFpNPX3rNm3E3QbNvQPbd2XhR5Ru2Dxp1XPnzcFNDCJNBkKQncEkTaZEVn6+0+k8U3o6fmr0aPBVYbfRyMjIs2fV6zJX221mdt8TaDLpfAHUqOTa+O2hq8ZEgOPy+A12uVxnSk9HhIctmJ/R0uKQNfbERvZGygwUBFTxB9a8SteNgSb7cv7c3t5eUcerq55GTpogXTemFHITBOHokUOy68bAcV2R7KN0uVw7tm+RXTcmG3L7+fhPog0EXjRS1E36qIQAh2C+1WQ1zW2zU2ZaLabV365t7B49cFX6j+vrUbdJJwfhLlbHoOiJnBw+I3ma9B/mEFGTXS67iVXjvagC4dLZK1ftNjPoOYyliVb9SzVZmN0yd94c0eG3slWwM5hsX7BhoZDgcFGJvtJ8OHRHNiyPxniyDk4QkCZDcII+4R3Nenp64Pyn3Jzs/v5+WZQ8sZG9kTIDCAFV/FEKbinlc87l4fgo2eAWfz2Z0roxaT6s7hdtEVVqjFJ+AI2v35vKIZhvNVlTT9+mbVthnRZ/3yU7RaikyU78cs5qMcXGTrn79NnLzt7lK7+xWkzrNm3EUyqkmkaVJvuzvmn6jE+tFlPxgR9An0lPx0BNhjOt0ko5oTicwfzhyFGM+cmWEKyZHC6qek5go6V0dQVbCLy/4joPviuhOBkLXaCnvaDZq1dN6WmzYmMiK+/eEa1ERDQ8sUFjSgQuAqr409/fv3LF0rTU5O6uLrbLMKdZWJDLZkK6q6tz9swk6fJ/mC6UXRxWUVEuu+C1sCB3alz0y5f10lpOnzpht5lF2wJgTlO0yu3WzbKU2dPb29rYQrxoJHs7pTkIcAjmW03mcA5eu30H1ubzzyfbsGUzSivQZJ8kxuNUIKzfX7lm1ehB2xnpf2/ndDgHcwoLrRZT0rRPWLO6tu7rFXfxgFZVmgznK+cv+GJ15ujEqKzgU5KMrIqSjZOxM5iJifGT3n+PfluJw1q41N/f/9v1q06nU2S5f99ejOS73e7nz2sePnwgsnn1qikx4SOcUyBNJsIniD9yXJ5sr1+/7lkwPyNl9vT6+jpZA0EQPLFRupfyAwsBtfzZv2+v9Cwe2UPLAAc4PiMhPgY3OcK5xNJDyxA38GaiU4FkDy3DW+D4jP379rLvGNJDy2D7sMhMEAQvGolVU4KPAIdgPtdkzb0Dh47/DEvgP/poyo9Hf3pYW1/d1HK1vOKb1SshPzUt5cn/nZKPgSirxfTFl5/ffVrT3DtQ29KxOz8fjHG7AE56Ll62+FHty+begScvX23YstlqMc1fML+6qcXhHFSlyRzOQVjXb7eZ/yfMareZz165yiotSL+NJmNFKsXJ+KzFw9OtFhN7QL8gCHDgNa5+aGpsSEqcKjrrH0+sxoMcSZONCXjQGHBcnmwf4SQn0dyNyNITG9Et9DFAEVDLH/AtK1cs/euv/5w3Buf4s4fyV1dXHT92FH+esqKifML4d/Jyd+NeJXBrWzavhxy3233nTkVJyUnYZu5yuQoLcieMf+fm7zdAY8E5/uPDrHgov+gWWNAWGxOJP6MJXjEiPOzRo/++wdbUVE9L+pg9vRZHbcxGoiUlVCHAIZjPNdnoef2v+4+eOg3RMunS+AULv8SfLWJFT9QHEfBDk+wtK9euxuP+2V9tYm0iJ4fjin61mgwPVLNaTDNnzcADzFhl9paaDI/JJU3mCYnxRwbhh+SKi/KXLP4qzD4uIT6GPSaxoqI8KnIi/hLcrqxt8DO9xUX5eIY1aTJPAA8OG47Lk+1gYUHuaFw8c7X0kJRfzpTAGQee2MgWTpkBh4Ba/uDqVXBTO3dsjYqcyPookEfs5KPoJ3o3b1oXZh/HbvWF5Wjs2WOwjha93IL5GaMrbRgXJ72F/bHggvyc1JQZ7K8zYXAO329FIzVmI0X29NFDBDgE00OTgaB58vJV/nffTZueCOGuyMnhXy9dfOVmORwtJit6yh/8uXjZEhBz06YnHispxUlJsG/uHbj98E/ROf4PauqwNLWazOEchB+4tFpM7PEZWCCG8bxYT4aF/H0C7dx5c0iTeUjf4aGhG79dWzA/I8w+Dg7C2LxpHXvIBZTT3PwqP29PXGyU1WKy28xpqckXL5zDd1DOulq4ndaTeTgcAWHGcXmy7c/NyWbf69g0LvrxxEa2cMoMOATU8gd/fevzjDS7zRwRHrZpYybro1wu1/59e6Oj3mdXdw0PDV28cA6O+ImKnFhUmNfZ2YFYDQwMbNyQmZQ4lV0r1tnZUVSYF/XPr87MSk4SuTjZW5qaGuGEIDi7sbz8Jv6oqyAI7W1ts2cmcSLE/EZiaymhCgEOwfTTZKhIxkx4EogasxAyMCYCHC6q4jQZEwIcBIhmHHDo0pgIhA5/Ll08P3tmkmh1/5j4kMFbIsAhGGkymeM5jKlmgqNVHC6+JcvpdkIAESCaIRSU8AKBEOFPf1/fsqWLpKv7vUCMblGFAIdgpMlIk+mKAIeLqjhNxoQABwGiGQccujQmAiHCn+bmVwf2fyf98aUx8SGDt0SAQzDSZLoqkuCIdb1NLzhcfEuW0+2EACJANEMoKOEFAsQfL0CjWzxHgEMw0mSkyXRFgMNFzwlNloQAHwGiGR8fuspHgPjDx4euviUCHIIZUZO9TRiG7jU4AhwuviXL6XZCABEgmiEUlPACAeKPF6DRLZ4jwCEYaTJdo0QGF0w6NI/DRc8JTZaEAB8BohkfH7rKR4D4w8eHrr4lAhyCkSYjTaYrAhwuviXL6XZCABEgmiEUlPACAeKPF6DRLZ4jwCEYaTJdFYkOgSiDV8HhoueEJktCgI8A0YyPD13lI0D84eNDV98SAQ7BSJORJtMVAQ4X35LldDshgAgQzRAKSniBAPHHC9DoFs8R4BCMNJmuisTgQSwdmsfhoueEJktCgI8A0YyPD13lI0D84eNDV98SAQ7BSJORJtMVAQ4X35LldDshgAgQzRAKSniBAPHHC9DoFs8R4BCMNJmuikSHQJTBq+Bw0XNCkyUhwEeAaMbHh67yESD+8PGhq2+JAIdgpMlIk+mKAIeLb8lyup0QQASIZggFJbxAgPjjBWh0i+cIcAhGmkxXRWLwIJYOzeNw0XNCkyUhwEeAaMbHh67yESD+8PGhq2+JAIdgpMlIk+mKAIeLb8lyup0QQASIZggFJbxAgPjjBWh0i+cIcAhGmkxXRaJDIMrgVXC46DmhyZIQ4CNANOPjQ1f5CBB/+PjQ1bdEgEMw0mSkyXRFgMPFt2Q53U4IIAJEM4SCEl4gQPzxAjS6xXMEOATzRpO1tjronxAgBAgBQoAQIAQIAULACwSUBJw3mszgs2PUPCMjwHk/UOIo5RMCahEgmqlFjOxZBIg/LBqU1hwBDsFIk+k6c2dktaRP2zhc1Jz3VGDIIkA0C9mh16TjxB9NYKRClBDgEIw0GWkyXRHgcFGJvpRPCKhFgGimFjGyZxEg/rBoUFpzBDgEI02mqyLRJxZl5Fo4XNSc91RgyCJANAvZodek48QfTWCkQpQQ4BCMNBlpMl0R4HBRib6UTwioRYBophYxsmcRIP6waFBacwQ4BCNNpqsiMXIES5+2cbioOe+pwJBFgGgWskOvSceJP5rASIUoIcAhGGky0mS6IsDhohJ9KZ8QUIsA0UwtYmTPIkD8YdGgtOYIcAhGmkxXRaJPLMrItXC4qDnvqcCQRYBoFrJDr0nHiT+awEiFKCHAIRhpMtJkuiLA4aISfSmfEFCLANFMLWJkzyJA/GHRoLTmCHAIRppMV0Vi5AiWPm3jcFFz3lOBIYsA0Sxkh16TjhN/NIGRClFCgEMw0mSkyXRFgMNFJfpSPiGgFgGimVrEyJ5FgPjDokFpzRHgEIw0ma6KRJ9YlJFr4XBRc95TgSGLANEsZIdek44TfzSBkQpRQoBDMNJkpMl0RYDDRSX6Uj4hoBYBoplaxMieRYD4w6JBac0R4BCMNJmuisTIESx92sbhoua8pwJDFgGiWcgOvSYdJ/5oAiMVooQAh2CkyUiT6YoAh4tK9KV8QkAtAkQztYiRPYsA8YdFg9KaI8AhGGkyXRWJPrEoI9fC4aLmvKcCQxYBolnIDr0mHSf+aAIjFaKEAIdgpMlIk+mKAIeLSvSlfEJALQJEM7WIkT2LAPGHRYPSmiPAIRhpMl0ViZEjWPq0jcNFzXlPBYYsAkSzkB16TTpO/NEERipECQEOwUiTkSbTFQEOF5XoS/mEgFoEiGZqESN7FgHiD4sGpTVHgEMw0mS6KhJ9YlFGroXDRc15TwWGLAJEs5Adek06TvzRBEYqRAkBDsFIk5Em0xUBDheV6Ev5hIBaBIhmahEjexYB4g+LBqU1R4BDMJ9rsj8eV0VHT7ZaTKL/6OjJfzyuqu/o+Wb1SqvFFB09+fbDP9kAT3PvQG5xkdVimhj+7rXbd9hL0jS/FodzsL6jZ8nypVaLaWvWTuntDuegtAS7zTxtemLR/v117d2yt1CmFwhwuCjL+7q6F7Exkbk52bJXK+/esVpMpSWnBEHo7u5OTZkhohn7MTcnG+zZTFG68u4dQRCgUvZSXGxU9q7tTU2Nss2AzIcP7k+Ni66pqRYEgW2Y9JbSklNWiwnqgjRbF5uOjYmsq3vhiQ1Wyt4+PSlh3/fFnZ0dojZ0dnYUFebFxUZZLaaI8LBNGzNfvKgV2QT0R7U0EwTB7XZXVJR/npFmt5nD7OOWL/u66ukTt9stwqG6umr5sq/D7OPsNvPnGWkVFeVSG/aWSxfPz56Z1N7WxmZCuqmxISlxamrKjO7ubulVvg07glGRE4sK86SjrFQm5Y+JgBf8EQRBLTeklKuuruK3bXBw8MjhQwnxMVaLCca9p6eHf0tPT09RYV5U5ESrxZQQH3Pk8KHBwUHOLawfk30uxmwkp3C6BAhwCOZnTeZwDpZVPvjgH7qsWfdtQ5cTv+YxPzsvr6mnD/NlE1JFBd9MoPy802T43ZY+57OqRodsvZSpFgEOF2UfV881WV/fX0cOHyouyof/rxctsFpM6zJXY87Vq1fq6+vwY37enqTEqVOiIvbszsLM+vo61GRpn82E/IL8HPiqjggPq6gol22ny+XK3rVjw/q1w0NDKI9ALErtWU12/14l1r5nd9aUqIikxKn5eXsg88D+79rb2jyxwUq/XrQA7s3NyZ6VnASOuLb2OTajtvZ5QnxMmH3cmlXLi4vy165ZEREeFhEedunieb68wBKMn1BLM7fbfab0tN1mXrRw/tWrVy5cOJeaMkM63BUV5RHhYTHRk3dlbduVtS0merLdZj5TeloJt/6+vmVLF+3ft1dq4HK5vttbaLWYOJpMyaa9vT1jbiqMYEF+ztz0FKvFlDz9k1evmow/NAHRQrX8EQRBLTeQctOSPs7Nyd66eQM8hkoeRhCE/r6+zLWrgKXFRfmLFs6328wZc1Pb29uVUJWlSubaVf19fbK3iPyYF42ULZYyRQhwCKafJiu99Gt1Uwv+1zS3gdLCeNh7423n/n0NvuMxfjY7Zeaf9U1jfvGjJlOqxfM42eWym1BdbUvH5u3bQJkdPHZ8zDaQgScIcLgoYi189FyTiW5ndY/oEnwcGBhYs2q57DeitFK32/3g/r3YmMgv5qW/fi3zYtrU2JCY8NGtm2VQuOdxMrZtEOpbs2r5wMAAm8+mOTbSSkdGRv595dcJ499BsTg8NLRh/dqE+BiI50HJLS2OjLmpCfExjQ0NbF2Bm1ZLs6bGhoT4mFUrl+F3FXyZsSGulhZH8oxE9isQcEtKnNrUKI+bKOTA4vno0YPYmMjYmEhZBoKlrM3w0NCWzevZERwZGTl54rjVYtq/by9bBaW9RkAtf7zgRtXTJ1OiIlh5VFNTnRAfs2B+hqyHcbvdx346zL4DjIyMlJSctNvMPxz4Xir6BUFwuVxZO7exrxbDQ0OFBbl2m/ny5Uuy4Ij8mNpGypZJmVIEOATTT5Oh1pF+c1c1OtLnfGa1mObOm1PT3OZwDv78y1m7zTzKv1+vSO2lOajJlGrxQpM5nIOP6xo/TUrgzHhKW0I5fAQ4XJQSF0NWnsxdim7XVpNBDH/P7qwJ4995/OihqC5BEH4+/hMr16TyiL1FqW0cvYW3c2xkK+3v71+5YmliwkcQRGlra02e/smO7VtcLheWKQhCV1dnR4fi2zZrGRBptTQD6K68+UV1+tSJyEkTqqueQpcvXTxvt5lRdmOm1WK6dPG8FBZRyIE16Orq/GJe+nd7C7N37VDSZBwbp9MJAV0s8+XL+qlx0UqPCZpRwkME1PJHLTfcbvf+fXunREWwr0aQOWH8Ow8f3Je28/Xrni/mpS9bughfGwRBgEzW87A3wptG9q4d7MMOmfiSxtqL/JgXjRSVRh+VEOAQzBCazOEcPPfva++Nt1ktpoPHjv9Z3zQ7ZabVYhLNZnK+7H2kybBYipNxwFd1icNFWfpKQ1asmawKAQMl3YO3q4qTwV2nT53AdWBYDnrGn4//hJmchgmCoNQ2jt7Ckjk2spW63e49u7NgXZogCKDJlDwy1hLoCbU0k9VkR48ciomeDNO+w8PDmzZmJk//pK2tlQUH+Llnd5Y0UCEKOeBdLperuCgf4m25OdmymswTGywQX10oTsZi8jZpVfzxghu9vb1fzp+7ZPFXfX1/se2svHvHbjOfPnWCzYT040cPJ4x/5+iRQ+wlt9udn7cHWcpeEgThyuVLfy8YLSv7jc0Hvzd7ZlJXVyebL/VjXjRSVCB9VEKAQzD9NJloVvFFaxf7Xd7Q5Vyz7tvRtS8JcbAYPy7uwz/+rGJtOGkUT0q1qI2TNfcOPKp9uXjZYqvFROvJOMirvcThoix9jaPJXC7Xtq0bUdywra28eycx4SN2AktWHuEtemqy3t7er//1ZVpqcndXlyAIMPNlt5mPHzsKS9+wVcGUUEuzjo72jDmp0rlLnEd+/bonPW0WfkSsOBK5tOSUNIABC3QiJ02AHR6ymswTG2wAjGlhQe6UqIiqp0/YfEp7jYAq/njBDaW4JsfdnTt7RvaFUMmZCIJQWJAr669yc7Jl80V+zItGeg14qN3IIZh+mgyXzENCuv/xjz+r4uI+hKt2m/nwiZOef9+jJlOqxXNNxpbwP2HW7buyRPLR81aRpRQBDhdlH0twUrjcHpfDQ2Jd5mrcdym6neOqwFJVnGxkZOTq1SsR4WFbNq8XSRmYohJNEIAmw+X2ombD/gP4VmabzfmCRzOOjVQIDg8NHT92VLTipL6+LmX2dNi3tWP7ltvlt/j7sLDqAEqopZkgCI8fPYTVPLjGP2X2dJwiBNg3bcwcHh5mcQAWpafNEq0BgtX9bOgU7qqoKI+cNAG3BchqMk9scEdL5tpVUZET46dGV1bekcbq2KZS2nMEVPFHLTc4cU0oKnPtqqEh8dbI0pJTsgsn4Kk/d/aMtHe5Odm4aIG9Wlpyym4z379XyWZK/Rj4XmnwldNItkBKcxDgEMxAmqz5df/GrVtAEn2SGP+o9qX0G10px0eaDBqzfOU3z161KlVN+aoQ4HBRlsHgF1ihLE3Lbm98e02GQnBX1rbp/ywrXDA/Q7rFqamxYXpSgmgJCDhKaVPZHB9pMhSCW7dshNMuNq7/ll2DIgjC4ODghfNnYVcmiLMzpadFWlN2OAIlUy3NBEHo7OzYuWMrO0B7iwv6+/uhy0oxAyVl//DB/elJCWzoVBAE2PFaXJSP63ukmswTG9HJL3AqR3n5zZGRkUAZIIO3UxV/1HJDEIT79yrtNrPUcYHckYZjOUEv6ZsYYDs0NJi5dpXszLisb5T6MS8aafBhNU7zOATTT5Mprb7Hb3Q8/ALcYm5xUXPvAF6VPUIMg22oyZRq8TxOhiXUtXUf/OnYxPB3rRbThi2bxzyPg20qpZUQ4HBR9oHhBPPx9Aepa+Os2cJalL5N8S0Wv57tNnNaavKZ0tP4DY2FwKpY0cJbfsM4beN4ZKyRYyMSgmH2cQvmZ9z47RpHbDmdzjOlp+OnRlstJqXdW1h1ACXU0uzFi9qkxKlfzEuvevpkZGTE5XI9fPggZfZ03GUJ6/Ck68aARV/On9vb24v4SEMOgiDARk52n50gCCJN5okN1gKJ4eHhv6cs165ZYbeZ9+/bi2pPZEYfVSGgij+quAHNqK56GjlpgnTdGDzd0nCsIAjs6ka2L/DUi7anwKbLHdu3yK4bkw25/Xz8J5Ef86KRbMMozUGAQzCjaLLalo4F/xo9UGrxssXbs3dZLaYPIieWVT5gv9orq55nfD53RvI0/M/fuxcMfKHJHM7B5t6BPQUFVosp/uPY+89esI2htHcIcLgoy2A/ajJPdrHBvifptjull1foo+x7KgY/ZN+SEZwxNZmsQsXbZRMgBWSnOWTtjZ+pimbDw8Pbtm5MiI8RhbXgIACQqkqwy+ZLQw59fX+tXLF0fJh1y+b17ER22mcz4YS8q1eveGKjhHx/X9+qlcuCaQSVeqpPvir+yHKA/zgruTWlfM6LnJIzAcUvu25Mup5M1o8pNUYpX5+hCY5aOAQzhCZr7h347scfUYc9qn2ZNO0T0Gd1bR6doe8jTeZwDh48NnrwD549650QobsQAQ4XZR82/vPPkT4cVwUVjRkn80ST3bpZljJ7uvSUdk7DOO5VybmzyHBs+JWyhUjTR48ckl2tIrUMiBxVNFOCFPJXrlja/8/fyhVLcasEggDzVoUFuZgjGzqFojDyKk3k5mR7YsPWIkrLLhIS2dBHDxFQxR84bsZDbkADuro6Z89Mkr59wXSh7OKwiopy2bWzhQW5U+OiX76sl3bt9KkTdptZtEYC5jRFKyBl/ZgXjZS2gXJkEeAQzBCa7PbDP+H3l3C+Es8n83Clv480GcXJUEtpleBwUZa7RtZkcP6q7CntfHmkpBeVxAGLDMeGXykU0t/f/9v1q06nky1TEIT9+/Yq7agXWQbER1U0A0ileyRhTgo0GUAkPTtKejCVbMhBCTTR3KWsmdSmu7tbOo2+f99e9jQ12aIo00MEVPHHc25g7XB8hig0K3seGN7y6lVTYsJHolNsgGyiOUe8BY7PEDko6aFlSn7Mi0Zi1ZTgI8AhmH6aTHRKRXVTS31Hj8M5WNfWLT1yAjMTEuLuVT8fUxCgJlOqBdeTrd+8CX9LABKwrRJLkF1P5vlJaWM2NcQNOFyUJbGRNVlNTfW0pI/ZUx+xC3x55C9N5na7fzjwvdViKizIZReZwQHiSp4dOxVACVU0g+Vfdpu5pOQkLpOHE89HT0z88QB0HKi4csXSv/76z5lScI6/6OB12ZCDEnRSvSW1FNlUPX0SOWlC0I+gFAc9c1TxB1eg8rlRXV11/NhR/HnKioryCePfycvdjU8iPIa4s9vtdt+5U1FSchK2RbtcrsKC3Anj37n5+w3YYAvn+I8Ps+Kh/KJbYCogNiYSf6ESWB0RHvbo0QPEk+PHxmwkFkIJVQhwCKafJpOG6w8eO97cO3Dwp2NWi4n9YSVQLddu34H19Z7oIVRUsrWwv3cpNYCNApwSUtNSnnjw+04hLrY87D6Hi7KcNqwmg5daJR1jTE0GP5m3cf3oQYDwo43FRflLFn8VZh+XEB/D/iam7FgEUKZamsGKOqvFNCs5KTcne1fWNviZ5yWLv8KjNfG3/wC6nTu2RkVOFOEGIQfRwSgc3ER6S9ZSZAM/gmm3mRPiY3ZlbQvWEZSFQrdMtfwZkxsgj9jJRzgW2Goxwe9dbt60Lsw+DveU4HI09kwyYCn+3uWC+RlWi4ndxovT3zhfyf64bUF+TmrKDPbXmeDnSfbv26vkx8ZspG4jEmQVcQjmZ012+9ETOJNMurGxqadv5+7dVovJk19Y4igqOIIf42SeazK7zTxz1ozvDx6qa/doTZuHoiTEzThclH3qDKvJ2tvaZs9Mkq7uh14YVpPBEaM3fru2YH5GmH0cHISxedO6pqZGWfwDNFMtzUbVan//4f89CIeewE7bixfOYQwDcBgZGSkvv4k/SL9pY6YIt5qa6qlx0aKDUTgYivSWrKXUZmRk5N69uyu+WRIRHma1mOJio4oK8zo7O2Rvp0wvEPCCP3xuuFyu/fv2Rke9j2oJnsSLF87BkTRRkRNFgzgwMLBxQ2ZS4lR2rVhnZ0dRYV5U5ER4fxBRVPaWpqbGTRszI8LDZM9M4fuxMRvpBbZ0iyAIHIL5XJOFuASh7osQ4HAxsJ7VSxfPsz9QHViND/rW+oVm/NBp0GMeTB30C3/8AiD5Mb/AziEYabJBkWigjz5FgMNFvzwb3lUKp7SLFs96VxTd5QsE/EKzMUMOvugplekLBPzCH190hF8m+TE+Pr67yiEYaTLSZLoiwOGi7x4AzUtubn51YP93r141aV4yFagJAn6hWXV11cEfD3R3d2vSBSrEjwj4hT/695f8mP6YQ40cgpEm01WR+DQEFRCFc7jor8eD6g0+BIhmwTemevaI+KMn2iFYF4dgpMlIk+mKAIeLIfhkUpd9hADRzEfAhkixxJ8QGWh/dZNDMNJkuiqSgAhl+bSRHC766/GgeoMPAaJZ8I2pVwvOAgAAIABJREFUnj0i/uiJdgjWxSEYaTLSZLoiwOFiCD6Z1GUfIUA08xGwIVIs8SdEBtpf3eQQjDSZrorEpyGogCicw0V/PR5Ub/AhQDQLvjHVs0fEHz3RDsG6OAQjTUaaTFcEOFwMwSeTuuwjBIhmPgI2RIol/oTIQPurmxyCkSbTVZEERCjLp43kcNFfjwfVG3wIEM2Cb0z17BHxR0+0Q7AuDsFIk5Em0xUBDhdD8MmkLvsIAaKZj4ANkWKJPyEy0P7qJodgpMl0VSQ+DUEFROEcLvrr8aB6gw8BolnwjamePSL+6Il2CNbFIRhpMtJkuiLA4WIIPpnUZR8hQDTzEbAhUizxJ0QG2l/d5BCMNJmuiiQgQlk+bSSHi/56PKje4EOAaBZ8Y6pnj4g/eqIdgnVxCEaajDSZrghwuBiCTyZ12UcIEM18BGyIFEv8CZGB9lc3OQQjTaarIvFpCCogCudw0V+PB9UbfAgQzYJvTPXsEfFHT7RDsC4OwUiTkSbTFQEOF0PwyaQu+wgBopmPgA2RYok/ITLQ/uomh2CkyXRVJAERyvJpIzlc9NfjQfUGHwJEs+AbUz17RPzRE+0QrItDMG80WWurg/4JAUKAECAECAFCgBAgBLxAQEmJeqPJfBpHocKDGwHO+4ESRymfEFCLANFMLWJkzyJA/GHRoLTmCHAIRpqM5i51RYDDRc15TwWGLAJEs5Adek06TvzRBEYqRAkBDsFIk+mqSII7BuZJ7zhcVKIv5RMCahEgmqlFjOxZBIg/LBqU1hwBDsFIk5Em0xUBDhc15z0VGLIIEM1Cdug16TjxRxMYqRAlBDgEI02mqyLxJJIU3DYcLirRl/IJAbUIEM3UIkb2LALEHxYNSmuOAIdgpMlIk+mKAIeLmvOeCgxZBIhmITv0mnSc+KMJjFSIEgIcgpEm01WRBHcMzJPecbioRF/KJwTUIkA0U4sY2bMIEH9YNCitOQIcgpEmI02mKwIcLmrOeyowZBEgmoXs0GvSceKPJjBSIUoIcAhGmkxXReJJJCm4bThcVKIv5RMCahEgmqlFjOxZBIg/LBqU1hwBDsFIk5Em0xUBDhc15z0VGLIIEM1Cdug16TjxRxMYqRAlBDgEI02mqyIJ7hiYJ73jcFGJvpRPCKhFgGimFjGyZxEg/rBoUFpzBDgEI01GmkxXBDhc1Jz3VGDIIkA0C9mh16TjxB9NYKRClBDgEIw0ma6KxJNIUnDbcLioRF/KJwTUIkA0U4sY2bMIEH9YNCitOQIcgpEmI02mKwIcLmrOeyowZBEgmoXs0GvSceKPJjBSIUoIcAhGmkxXRRLcMTBPesfhohJ9KZ8QUIsA0UwtYmTPIkD8YdGgtOYIcAhGmow0ma4IcLioOe+pwJBFgGgWskOvSceJP5rASIUoIcAhGGkyXRWJJ5Gk4LbhcFGJvpRPCKhFgGimFjGyZxEg/rBoUFpzBDgEI01GmkxXBDhc1Jz3VGDIIkA0C9mh16TjxB9NYKRClBDgEIw0ma6KJLhjYJ70jsNFJfpSPiGgFgGimVrEyJ5FgPjDokFpzRHgEIw0GWkyXRHgcFFz3lOBIYsA0Sxkh16TjhN/NIGRClFCgEMw0mS6KhJPIknBbcPhohJ9KZ8QUIsA0UwtYmTPIkD8YdGgtOYIcAjmQ03W3DuwfVeW1WL6NCnhcV0jKzXwUnT05D8eV7GX6tq7v1662Goxbd+V1dw7UN/Rs2T5UqvFJP0/eOw43Hi57KboapjdkpI661hJaUOXky2c0n5HgMNFDu87OzuKCvPiYqOsFlNEeNimjZkvXtSK7EdGRsrLby6YnxFmH2e1mGYlJ/1ypmRwcBDN6upexMZE5uZkYw6bqLx7x2oxlZacYjM56dyc7NiYyLq6F1KbgYGBNauWp6bM6O7uFgShtOSUiJ/sRyjEExtBEKCR7O3TkxL2fV/c2dkhbQbkDA8NbVi/NnvXDpfLJWqY6Jbu7u7UlBlrVi0f+OdvzarlbEWi9JpVy1taWlJTZojy2Y8ANVTK5keEhy1b8q+KivKRkRFRG5qaGjdvWhcVOdFqMUVFTszP29Pa2iKy8eSjFzQbHhq6eOFcWmqy3WYOs49bvuzrqqdP3G43W50nNqy9NO12uysqyj/PSOPUIghCdXXV8mVfh9nH2W3mzzPSKirKRS0RlXzp4vnZM5Pa29pE+YIgNDU2JCVORTZKDTg27HMXFTmxqDCPwzTZkgM00wv+QE/7+/vPni1FLwRU/73sxvDQkL+gcLvd+/fttdvMlXfvyLbB5XJl79oxJSqipqbaQyeDD/XSxQudTqe0WL6zldrn5mSzLgLS6GAfPXoQER62auWy/r4+0b0tLY7kGYlfzEvv6uoUXRJ95FchCALHpcvCEhcbtX/f3t7eXlFFnnzkEMyHmszhHDzz6xWrxWS3mf998zarBmqa29LnfAa4n/jlHHvp/rMX8R/HWi2mM79ecTgHvdNkOLrfrF5Z39HDlk9p/yLA4aISlWtrnyfEx4TZx61Ztby4KH/tmhUR4WER4WGXLp7HLyqXy1VclG+1mKYlfZybk52bkz0rOclqMS1Z/BU+q3w34TtNdv9eZXFRPvzv2Z01JSoiKXFqft4eyDmw/7v2tjZPbNAvfL1oAdyL3UyIj6mtfS4LYE1N9dS46IcP7guC4LkmGx4e/uVMCTZ7XeZqq8WE9RYX5f9ypqSnp/vI4UNo8/WiBVaLaV3masy5evUKVjolKmLP7iy4BCNotZiKi/JdLhc2u6KiHEZ26+YNxUX5SxZ/FWYfFxsTee/eXbTxMKGWZv19fRvXf2u1mOampxTk52zdvAFacuO3a1ijJzZoLJtwu91nSk/bbeZFC+dfvXrlwoVzqSkzIsLDKirKWXvAISZ68q6sbbuytsVET7bbzGdKTyPbWWNBEPr7+pYtXbR/316pgcvl+m5vodVi4mgyJZv29vaMuanw3BXk58xNT7FaTMnTP3n1qknUgOD7qJY/giC43e7Ku3diYyKtFtP0pIRdWdvQWVktpi/mpfsRt4cP7k8Y/w68mEkHq72tbfbMpGVLF4HiAU+ID7usk0FNZrWYjv10WEo8vrOVtiE3J3vC+He2bd2I3qO4KB98oyAIQFG7zXz58iX2XpfLlZ+3R/oEsTaY5lfhoSZjYZmW9DGMLH7FYF1jJjgE860mQ4FVfOAHVgpcr7j73ngbKKd1mzY29fThVZBx8R/H3n/2gtVk6zdvqm5qYf9RbEGcjA25/VnftHjZaLBtdBTLbmLhlPA7AhwuyvIYwjwJ8THwDgc2LS2OjLmpCfExjQ0NkANOp7AgF99HR0ZGSkpO2m3m/fv2QjyG7yZ8p8nYfrGxKDafTXNspI0cGRn595VfJ4x/Z8P6tdh3LA1ekdHbeq7JsARISOsVGWA4UPouLltpZ2fHsqWLJox/B8SiIAivX/d8MS89Y25qS4sDC6+pqU6Ij5n/+Zzuri7M9CShimZut/uHA99HhIddOH8WQ3ctLY70tFlfzEt//boHvnHHtBmzYU2NDQnxMezrPugeNsQF7/0Zc1Pb29uhQGB7UuLUpsb/sF1U0cMH96fGRbMPCBo8evTgb1EbGxPJ0WSyNsNDQ1s2r2efu5GRkZMnjlstpv379mL5wZpQxR8AAZR0yuzpf/75mNUo/f39339XZLeZ2THVGTdQ7SzN2AZcuXzJajFdungeMqUPu9TJwEMdGxM5Nz1lSlRE1dMnbIGCIPCdrch4TD0kCAI8KckzEln/AJiLXu2khUMOPww2ZhuksAwPDeXl7rZaTFfeVIpKDWDzOQTzrSbDKNeS5UtRQjmcg8UHfrBaTCDLZs6aUdXoQK2wc/doJ9EeS9iatRNtRAmpJnM4B3+vfDDp/fesFhNOcYruoo9+QYDDRZaymG5ra02e/smO7VvYgIogCF1dnR0d//nSEgTh6JFDkZMmVFc9xRvh7erly3q8ke8mpI8cW5Q0zXnCZVUIlMDRW1gFx0a2kf39/StXLE1M+Ej6Ig5vwOhtOQ0TBEFtvdhgSMD0q4eaTBCEiopy9gu+uupp5KQJR48cEhXraG6WnRwRmYk+qqIZzHofP3YUqQKl7d+3F2dPPLERtUH6EYZP5MFPnzrBUvfSxfN2m/nWzTL29ksXz7PfmuwlmHiSVeRdXZ1fzEv/bm9h9q4dSpqMY+N0Ouvr69i6Xr6snxoXrTT7z1oGeloVfwRBACWdnjaLVQwIwsjIyJHDh6wWk1KkCi19l/j5+E+y6gFeelnv4YmTQU9y506F6DUDusB3ttJuctwpGt+69fuE8e/k5+2B5xSo+/eLk+yUPd6FiTGr4BvIwiKbiTVyEhyC+VaTofzCuBcb+srOy5syZdJ7423XK+6CPnjR2rVg4Zejkxr/F1fzWpNdLrtpt5kpTuYX4cWplMNFWQaDJpP9ymHtjx45xAZd2EuY5rsJtU8X5wFGhwXrybABfN2DZmq1kdvt3rM7C9UDliMIgmiZEadh/LZ5Ao5aTVZb+zwmejJ+wYMmk52AY3vkYVotzWSLPX3qhCyqrLEnNmgPMIo02dEjh2KiJ8PU8/Dw8KaNmcnTP2lra8W7MOqwZ3cWG4ABg6bGhsSEj0QaDl5IiovyITaTm5Mtq8lgxp9vI20GxclYTCANigdffqQGEAZOiI/BYCc+L1VPn+DawbTU5Ju/38BgLZTDrkG028xpqckXL5zDoDg+1M3Nr3448D0suo2Jnnzi55/QBpYMJsTHSB0pxG5ZsSj7sIucDFba3dUF0/ElJSdZcvKdrRQfjjtFY5fLlbVzW0R42KNHDyC2PWH8O7du/Y4G/MSYVfANZGEpK/vNajGdO3uGX7X0KsdB+VyT4TQlrA9zOAfvVT+Pi/sw/uPYssoHczPSWQX2x+Oq6OjJrEpDTSaau6xpbmt+3Q/f/aI4WfPr/orHT2enzLRaTLSejCOP/HKJw0UpcQVBgDkUu818/NhR1sWIjGERaHrarIaGl6JL+JHvJmQfObxXmuA8wP91WP+s8Wfv5egtNOPYyDayt7f36399mZaaLJrgg2awKofTMP012fVrV9lNFa9f9yyYnxERHnb16hXRdxIi43lCLc2kJUP8QCqPWEtPbFj7jo72jDmp0rlL2FcBE7jpabPwI97LoURpySmcYEV7WLgWOWkChC1lNZknNlggPImFBbmyE1WsWXCkVfEHAtV8qkAs/+8tSmVlvwFEoMmyd22PnDTh84y0gvwcWDsoWmfpcrl+Pv6T3WaelZwEK2VhGRNO2MFDHREeFhsTya5BtFpMPxz4HnUSLgJBUQjNgMLZ8LYnTob1JP19fatWLouNiXz+vAZHn+9s0QwTHHeKNrgZZenihX/8cXtKVATGzFgbpfSYVfANpLD09PQsW7pINJ2qVLson0Mwn2uyqkbHzFmjm7NgH6XDOXjil3M4O5lTOLr+FGcqYTEZO5uJmgyX7UMieea06qYWVpOJDCaGv7vv0CHad+kX4cWplMNFEWvxY319Xcrs6bARb8f2LbfLb7G7KcHM5XIdOngAIqOfZ6QdPXLI0dyM/ghswE2kfTaTXUaKaVjGrmrfpXRRKpSWn7dHaacb58sV+8uxkfqF4aGh48eO2m1m1v9CUTU11dOSPmaXGYEnZZfbY/eLi/Jh/4FUEODeAj44+N6PHYEE677xUkPDy/S0WaI1Uvfu3YUl0gnxMXm5ux89eiCaTMTbx0x4QTNRmbBURYoqa+aJDWsvCMLjRw8T4mMWzM/ANf4ps6fjFCEM/aaNmcPDw+yNgGF62ixY3IaXYJ3Qz8d/whxIVFSUR06agNsCZDWZJzZ9fX/BNo7MtauiIifGT42urLwjeqxEVQfHR1X84TywLBowWY8PETwvEeFht279jpDC1zyEguDeyrt3IidNKCk5iS8qEN3EaQHghtViWrtmxV9//QV3tbe1pafNEslECOqwbAH+iDS9J05G9FA/f14TGxPJvmx4ocmk7vSXMyWiB0EQhMuXL9lt5tHtJm+uLWOhlk3LrvFnq/BEk+Eaf9ioNDc9RWlzlWwbMJNDMJ9rsqaevk3btlotpgULv3zR2tXU07du00aMjcEMI8xs4gEZ7Kp/rzUZLPDfvivrZcdrjkSgSzojwOEi8lWaGBwcvHD+LGylBHF2pvS0KGzmdrsbGl5u2pgZER4GAn3p4oVNTY1YGrgJkXYXfUSPiXcpJWR3VrOlyc4WeeK+OTbgLtEvbN2yEaYqNq7/VrRLHFb3i6Yq0H2z7RSlfaTJUAgW5OfASQFRkRNF+w0FQXA6nYf/92BCfAy0Kn5qtHQqR2lE2HzvaIYlgHLiL8r2xAYLxERnZ8fOHaP+EP/3Fhf09/eDgdKCLdFXIJb28MH96UkJosgH7FPGOAosXhax0RMbDJ1CU+FUjvLymygOsBnBl1DFHxg12QeHRUakdUCTsWFsMIbtSjBBDHPZSxZ/1df3H7EFNjDvDzbADTzJAmuE5RyPHz3EHNH+SnhDmDD+HdEiTk+cjIiQbrcbNlTha4AXmgyfCEzIQtrT05MxN9VqMf3voR+wa54kZD02W4UnmgzbBomY6Mlnz5Z68erIIZjPNRmeiAH7IiFshrOTj+saP01KgJMvnjvaYSqTPR0DNZmqNf41zW278/NBTX/344/NvQM6Kw+qTgkBDhc9ea6cTueZ0tPxU6NFkXn23pGRkWfPqtdlrrbbzGwkhu8mRB6TLVA2zXmARQ6LvZ2jt9CMYwONRL8QZh+3YH7Gjd+uieTp6DaltraU2dNFy4w4DcMvYNZJYZM8AYcfJ8M2Wy2muNio/Lw9zc2vsHxpoqOj/ccf90dFTpRugJcaS3O8ppnL5TpTejoiPGzB/AzZ9dqwVGtMG2mTBEF48aI2KXHqF/PSq54+GRkZcblcDx8+SJk9HcUfrJ6UrhuDgfty/lz2MCRY3c+uBMLtaZlrV7EaXRQngy1sfBtR+4eHh//eW7d2zQrYyOzFl5CoQIN/VMWfrq7O2TOTZB8ctpuycTJ20hCMgQMQKwVXwD47bJo9/0+kuWX3Qbvd7vy8PRPGvwNCDV7bpGLOEycj9SQwg4mH8vCdLQsLpDnulDXGLdKxMZEJ8TH1kuMhRcKLXQ86ZhV8A5EPHBkZaWxo2LQxU+k0ELbZ0jSHYHpoMjwR48Qv566WV7w33oazk43dztXfroWZzYrHT6OjJ7NHWrAbAlRpModzsKHLuXLNqtEDhzLS/1Z7ShKB8nVGgMNFKXGVcuBLhd0rJLXEs6BwSTLfTYgeOWmBohzOAyx1WHgvR295YuN5Iy9dPC+aksCjwqTuG6rmtM2TevmaTKlS7LVsAsI5Ii0iaynK9I5mPT09mWtX2W3m3JxsjF2JSvbERnQLfBweHt62dSO7yhvyq54+mRIVAZOkSkMgm9/U2DA9KQEPExEEoa/vr5Urlo4Ps27ZvJ6dlU77bCbEKa9eveKJjWz74SC0VSuX8Z87pXsDK18Vf/r6/lqy+CvRRKG0v0ePHLLbzPfvVcIlpeeFHWtIf56RVlb2W8XtctE/rN9S8jay5WMQzu12d3d1paUmi0LpHi5UkK0UZjDXZa4eGBjgO1spOBx3yhrDuuH8vD2PHz2cEhWxZfN60evo8+c1LEp37/yB87ljVsE3kPWBsJZX6ZARtuWiNIdgemgyjHWt27QxOy+PXVvmcA4ePDZ65s3cjPT9hw/jFCcKBbxXrSZzOAe3Zu0cnXVmVp5hsZTwFwIcLopYy/8ojcxL7dk3Tty8hhv9RPayj5zIhv3IeYBlHRbcyzpctjQ2zbHxsJFKy4w4DfN1nMw7TeZyuXZs3+KFCPCCZq9eNaWnzfp7oXTlXcUlU57YsEPJppWGFfJXrlja/8/fyhVLpds1YHassCCXLfDn4z/hyXOQD0WxoRRROjcn2xMbthZRurTkFCssRFeD5qMq/kDASemwEsAE9l2yX96ymkkQhFevmhITPoJYqRJnWJyVHmrZ8kE+wtvarZtlf/+YhGgX8NtoMpzBPHu21BeaDLYBweEXEDBTFUTneGzAk2+g5Hv5d7EjxaY5BNNDk/33RIz42MTEeDyjH2QBHCQWHT15RvI0q8WUU1jIygWvNRnFyVgYjZPmcJGlLKb7+/t/u35VekLV/n178QQBt9v9/HnNw4cP8C5IsN4tpDSZ7DIjg8fJuru7b9y4LnrrhfU0s2cmqT0pWy3NwN2zy+1FXIJNkQvmZ/BtpHdhDny/SoOX8OYAmkwQhP379uLybbxXemgZfMdzDl/Ae2XXk7FXIS2a3wSNLg0W7t+3lz1NTVpOcOSo5Q9IEKXzyfBXRtgj70EzSUcQzqKDha2gt6Sx1cHBwY6OdtgZoEqTCYIAGy1v3LievWsHqxFx4JTEBxpwPAnOYF65fInzQ3ZsUZAeU9ngUf64cRXOJ2NXp0iLZXPGrIJvIAsL7GadGhf98mU9W9eYaQ7BdNJkeCKG1WJizypzOAdxGZnssfuoyURnYVQ3tTx3tMNCMdFZGA7nILueLLe4iNaTBagmg5chq8XEHtAvCAIc745BAvhFP/bMcdy6zx6/yX91k33kOI8W5wFW8pL8WBTWxXk59qSRssuMoHBOw/ht86Re2fdyjvvG/rInnrD7y9xu961bv0eEh4mWTLE3KqU5Lk/2FtFR5l7byN4ImTAudpuZ7ePw0FBhQe7o0dY/HgAzYOnKFUtxzgXO8V8wP4PddHnrZlnK7Omen5Y5ZpxSpMmqnj6JnDSB/9xxOhvol9TyB1dKcM7xFy3gg+dF5LXAs7E7CkGisXsqgTNh9nGgTpQeaqXnEQi2bMm/piV9nJ+3B7d84pB58rArVSoIAsxgxsVGTRj/jtKkBNaFCY47BZvKu3ciwsOydm5j1zLCKbKiTCxTlBizCr6BFBZ0UGMuJRS1RBAEDsF00mR4IgZ78gUIBdxuKftr5ajJREF4thzQZFIDq8W0fOU3dW3dxlEk1BIOF6XEhSUs8EOEcPQO/gwiLiaFuyoqymE9+KKF84uL8ndlbYO9e+zuM1WaDGbNOCuZOA8wx2Fx9BZ2n2Mj9Qt4FyaUDhEdUx69Zb1K3wEcNLDNsDh9wfwM/MXSgvwc+KFuXP/OGo+ZVkszEEbsj3XieizcLe+JDZx8K50PggbDOkirxQRnTSFL2V9lxW93IPzOHVujIieK2A5v555LVZHekkVPZINhiYT4GPjpRvj5UVFLZIsKgky1/BEEYWRk5ML5s7DpG8a3uCh/2ZJ/QU7m2lU9PaM/0oV/8LwkJnwUZh+3ZPFXxUX5a1Yt/1tpiX69sb+vDzbqAh9yc7KnJX1st5m/21sI6kTp+VJ6HoE8VotJGo6FtnniZJQqhV8hKyk5CV/HqMk8cafSszCKi/Jh+R2ExFipCk2FU2TtNjMGzxBeaUL2LAysAsLJsm2Ao2oAFtzzjg4qKXHqixe10ur4ORyC6aTJ8AgMPAWDVSdnr1yFPZKrv13b2O1kL3mnycLslrnz5hwvPUPnk7FgGiHN4aISiYeHhm78dg0OUICDMDZvWscecgE3Nje/ys/bA2dDSE+7Vjt32dvb++X8udKd6thIw2qyn4//JJ0gg2ZzPKl/42TQvP7+/jOlp9NSk8EbxMVGFRXmdXZ2IOaeJ9TSTLRdi33Bw5dgT2yuXL4knWlim93f33/4fw9O/2ezuSxL4du9vPwmSNKI8LBNGzNFbGd/V54tXCkt0luyZlKbkZGRe/furvhmCaiKtxkO2RqNnKmWP9iXjo72gz8emJWchBzesH7tn38+lh4gApqpoqL8+rWrcMpPRHjYim+WVFdXYWmQGB4aunjhHDwXsNWaPZFE6aFW0mSCIEBUWHrEBlT3lpoM94JYLSbUZJ64U/ahw3RpySmY+VVaOgaTJJ78wpLS84vnHykZwN5YgAUbZrWYEuJj9n1frLmD0kmTGUENUBuMgIDXzk7kp3z9sbrqaWxMJLupzdc1alI+LDNij4XUpNiAK8QvNINggHQjm7boiX5XXtvCqTRAQAf+cDRT8I1CgLpT3w0Eh2CkyQaNoFRCpw0cLvruAfCi5CuXLylFm7woTbdbbt0sS0z4SHSIqG61G6civ9AMggHSVdvawiL6XXltC6fSAAEd+BNSmixA3anvHgcOwUiTkSbTFQEOF333AKgtGX5wlzNxqbZAfexHRkYuXTx/4cI5dhmsPlUbrRa/0Ky29nnaZzN9LYirq6sO/nhA+vP2RhuCgG6PDvwJHU0WoO7UpwTmEIw0ma6KJHTiYUo95XDRp8+AqsLdbndvb+/AwICqu8jYOAj4hWbDw8OvX/dIVw4ZBxZqiYcI6MCfkNJk5E5FxOMQjDQZaTJdEeBwUcRa+kgIeI0A0cxr6OhG/lEFWuETOppMK8SCqRyOgyJNpqsiUYoehU4+h4vB9MhRX/yLANHMv/gHeu3En0AfQYO3n0Mw0mSkyXRFgMNFgz9F1LwAQoBoFkCDZcCmEn8MOCjB1CQOwUiT6apIQiceptRTDheD6ZGjvvgXAaKZf/EP9NqJP4E+ggZvP4dgpMlIk+mKAIeLBn+KqHkBhADRLIAGy4BNJf4YcFCCqUkcgpEm01WRKEWPQiefw8VgeuSoL/5FgGjmX/wDvXbiT6CPoMHbzyEYaTLSZLoiwOGiwZ8ial4AIUA0C6DBMmBTiT8GHJRgahKHYKTJdFUkoRMPU+oph4vB9MhRX/yLANHMv/gHeu3En0AfQYO3n0Mw0mSkyXRFgMNFgz9F1LwAQoBoFkCDZcCmEn8MOCjB1CQOwUiT6apIlKJHoZPP4WIwPXLUF/8iQDTzL/6BXjvxJ9BH0ODt5xCMNBlpMl0R4HDR4E8RNS+AECCaBdBgGbCpxB8DDkowNYlDMNJkuiqS0ImHKfWUw8VgeuSoL/5FgGjmX/wDvXbiT6CPoMHbzyEYaTLSZLoiwOGiwZ8ial4AIUA0C6CoT91DAAAgAElEQVTBMmBTiT8GHJRgahKHYKTJdFUkStGj0MnncDGYHjnqi38RIJr5F/9Ar534E+gjaPD2cwhGmow0ma4IcLho8KeImhdACBDNAmiwDNhU4o8BByWYmsQhmDearLXVQf+EACFACBAChAAhQAgQAl4goCQxvdFkoTPRRj3VHAHO+4ESRymfEFCLANFMLWJkzyJA/GHRoLTmCHAIRppM15k7zSVOwBXI4aLmvKcCQxYBolnIDr0mHSf+aAIjFaKEAIdgpMlIk+mKAIeLSvSlfEJALQJEM7WIkT2LAPGHRYPSmiPAIRhpMl0VScCFtTRvMIeLmvOeCgxZBIhmITv0mnSc+KMJjFSIEgIcgpEmI02mKwIcLirRl/IJAbUIEM3UIkb2LALEHxYNSmuOAIdgpMl0VSSah50CrkAOFzXnPRUYsggQzUJ26DXpOPFHExipECUEOAQjTUaaTFcEOFxUoi/lEwJqESCaqUWM7FkEiD8sGpTWHAEOwUiT6apIAi6spXmDOVzUnPdUYMgiQDQL2aHXpOPEH01gpEKUEOAQjDQZaTJdEeBwUYm+lE8IqEWAaKYWMbJnESD+sGhQWnMEOAQjTaarItE87BRwBXK4qDnvqcCQRYBoFrJDr0nHiT+awEiFKCHAIRhpMtJkuiLA4aISfSmfEFCLANFMLWJkzyJA/GHRoLTmCHAIRppMV0UScGEtzRvM4aLmvKcCQxYBolnIDr0mHSf+aAIjFaKEAIdgpMlIk+mKAIeLSvSlfEJALQJEM7WIkT2LAPGHRYPSmiPAIRhpMl0VieZhp4ArkMNFzXlPBYYsAkSzkB16TTpO/NEERipECQEOwUiTkSbTFQEOF5XoS/mEgFoEiGZqESN7FgHiD4sGpTVHgEMw0mS6KpKAC2tp3mAOFzXnPRUYsggQzUJ26DXpOPFHExipECUEOAQjTUaaTFcEOFxUoi/lEwJqESCaqUWM7FkEiD8sGpTWHAEOwUiT6apINA87BVyBHC5qznsqMGQRIJqF7NBr0nHijyYwUiFKCHAIRpqMNJmuCHC4qERfyicE1CJANFOLGNmzCBB/WDQorTkCHIKRJtNVkQRcWEvzBnO4qDnvqcCQRYBoFrJDr0nHiT+awEiFKCHAIRhpMtJkuiLA4aISfSmfEFCLANFMLWJkzyJA/GHRoLTmCHAI5nNN9sfjqujoyVaL6XLZTQi61Hf0LFm+1Gox2W3mn385K43EXC67abWYoqMn//G4SnpVlIPlWy0m9h9vx+q2Zu0U3QsfpSXYbeZp0xOL9u+va++WvYUyvUaAw0VZ3tfVvYiNiczNyZa9Wnn3jtViKi05JQhCd3d3asoMlgOidG5ONtiL8tmPlXfvCIIAlbL5cbFR2bu2NzU1yjaDMo2GgFqaCYLgdrsrKso/z0iz28xh9nHLl31d9fSJ2+0Wda26umr5sq/D7OPsNvPnGWkVFeVSG0dz86aNmRHhYVaLaVZy0sUL54aHhkTl9PT0FBXmRUVOtFpMCfExRw4fGhwcFNnQR38h4Dl/3G53ft6eyEkTqqueilrrcrl2bN8SGxNZV/dCdKmtrTV5+ic7tm9xuVyCIOTmZLPeBtLsjSIDu82clpp8/dpVuF1UOH00PgIcgvlTk406o4S4e9XPRV/wftdk+Hikz/msqtEhah59fBsEOFyUfZA812R9fX8dOXyouCgf/r9etMBqMa3LXI05V69eqa+vw4/5eXuSEqdOiYrYszsLM+vr61CTpX02E/IL8nPgqzoiPKyioly2nZRpKATU0sztdp8pPW23mRctnH/16pULF86lpsyQDndFRXlEeFhM9ORdWdt2ZW2LiZ5st5nPlJ5mZVlt7fOE+Jj4qdEnTxwvK/ttXeZqu81cXJTPfn22t7dnzE0Ns49bs2p5QX7O3PQUq8WUuXZVf1+foWAM2cao4k9Z2W9Wi+nokUMiuLq7utJSk/Glkb1aeffO39L/yuVLkJmbkz1h/Dvbtm5ER1RclH9g/3ftbW2yBls3bwDF/93eQpZXbBWUNjICHIL5WZNZLaY1675t6HKyX/PeabLSS79WN7Xgf01zW1NPn8M56HmcDCN5tS0dm7dvA2V28Nhxtm2UfksEOFyUfYQ812Si20tLTlktJoh7iS7Bx4GBgTWrlqemzOju7hYZSCt1u90P7t+LjYn8Yl7669c9Inv6aDQE1NKsqbEhIT5m1cplqIpANs2emYTfiy0tjuQZiRlzU9vb26G/LS2OjLmpSf+/vW//iuLY9v+T5gfWOGuczCU8rs5BzhAlhEMUFQ4IKtGcHF9RIyEG3wKRl2AUo8ZHjFEwxmj0mChRDsf3E6IoKgKCAoLAwB2mv5qd7751q7vL6UnT0zOzXSxXTc3uenzq09Wf2bWrOnVa2+NHkDM6MvL56vwkt+vevbuQ4/V6q6sqHPaoC+frMado8wZW8I2OjGytLHPYo079/4c0WNL/wUJAE3/A6bVq5bLh4WG2wdevXY2JnmizWtYUFoyOjrJf1ezYxrnB2I+sJaTLSks4g87OjuysWakp7zx50ia3pxyTIyAgWDA1WdaczLjYt+QrmIFpMlRUnGgIQJN1DHhuPnj8t7QUm9WituLJ1UIf/URAwEXFu0guj1gzdu2SzZckSV9NBmtbW74oiomeePPGda4u+mg2BLTSDIiEfgvozpHDh9g1qZMnjrPSCmxOnjhus1pOnjgOH2EBnXsGt7TccydORj8K6L+S4k2shwMyP1+dL1/lNBu2kdAeTfwZHR1dU1ggl0c1O7alJLvn5WalT3+vq+sp4jY4+HLxooWv/gYHX0KmXHKhscDgjVdxhdBH8yAgIFgwNVnh+nVFpVvkK5hm0GQYZEZ+Mj/Flp9mAi4q3jDm0WSSJB05fEjse1PsAmUaj4BWmilqsv379rgTJ7e03JMkCZ673MMVl7m3fFEEy5eKmqy56Y5rUsyRw4cAh9OnTtqslvr6syws4LWdPTOtp+c5m0/poCCglT8gzVlND8Lr89X5Pxw76rBHsQ57mNNqdmzDrr1RXckNIFht2tTEhw9bsRxKhAoCAoIFU5OtL9rc9Lgje87fuRXMwDQZt3Z5/2kPqAStfrL2/uEbLQ8XLV1ks1oonsxPpeW/mYCLireTeTSZ1+vdsL6QW0FQbDNlBh0BrTR79qw7d06mfO0SF6RevOjLzpqFH7GDIMIw3+v1bq0sk69dsrQBA3nct/y5i7VQwmAEtPIHpimM2UexXld7GBUYBh2ePnUyJnri9WtXsVNvHHq5wY0b15LcrqLNG1hvKxZICZMjICBYkDVZx4DnVP15bgUzME2GgfmQwDVH/zUZW8J/OW0bi4tQ2PmvOchSjICAi4p3EcxoGG7PxsBWV1V8VvCJYgit7muXY2NjZ86cjo91rlu7mlaXFEfKVJlaaSZJ0s0b11OS3QvycjHGP2P2dNjzgbt6uUVJSZLAv5WdNQujDPv6+lauWJrkdh369gDE+LsmxZw8cRwfyWWlJfJ1LmCswx519cplUyEZmY3Ryh/wimVlpvf29ABidbWHYeF7aHBw6ZKPPsjL6e/vlyQJ/FusJey7lMf4f3+0FqPQ2E0AsOUo2mkr2rzh5cs/Vj8jc5hCt9cCggVfk7X1DZaUl7MrmGbQZKDPlq34+LcnT8Uig77VhICAi4o3GGgyVi7L03AWBnf5n48nQyFYXLRh+u/BhQvycjG+m6uOPpoKAa00kyTp+fNnmzetZ9m1rbpyaGgI+vXwYeu0qYnyM1nkO0VGR0a+/77ONSkGi/ogLwdPURkZ8RTkr1TcWfJGxpoK4fBuTAD82b9vD65Rwko36rD9+/ZgYCJsxmQ9ampnYaDzVc1g/tzsO3duhfdAhGvvBAQLvibrGPBwK5hyTYbRXTjNoRsMv9Ixxv9BV+/uA9/Exb5ls1o+X7cW9m9qUh5krIaAgIuKtx9oMvmzEIzHNcYfyQanAR2tO4JPaMWmUqZ5ENBKs/v3W9JSp82fm9105/bY2JjX671+/VrG7Om4yxL21mHcGPYUNBk+fYcGBwtXf5rgijt54rjH4/H5fJ2dHXByAZyiAm4SxbixutrDtIMEgQ1uQit/wM8aEz0RosSALRgxdvPG9ZjoifDTEdJs5BlILnZ1W953bu1ydHS0sbEhY/b0KQnxTXduy+0px+QICAhmCk3GrWDKNdnlpnu583JmpL+PfxXbtsFTfzw0WceAp71/eEtlpc1qSX436epv99UUBuVrRUDARcW7KIiaTE0IKraTMk2FgCaajY6OblhfmJLsxiMtoC9Nd25PSYj/aud2n8/HxY1hZ7n8M2dOO+xRuA0TzAYGBpYs+nBBXi6sb3LPVyxKLR8NKGEYApr4A6168aJv/txs2E1ZX38WfWavF75/P6gMFr7379sjl19vHHpFg1u3bromxXAbeA2DiCr6MwgICGYWTcauYH61b38A5/jr6CcDnbH7m4P+N0OrNIlYewEXFSlOmkwRFsoUI6CJZpyuwpIhf8XyJUO//1uxfAkXBiRJEqxpbq0sg6sUn53gCMEtnEcOH2If2HAhrGmycWnYDEoYj4Am/kDz4ED/KQnxv/3WXFG+hT3Zzuv1lhRvSp/+3sOHratWLmNPwYBr1WiDHVc0UOMtXkUJ0yIgIJhZNBm7gpmamjzpv9/GlyOJ5Qv5ycT4mO1bARcV7x/SZIqwUKYYAU00g2eb/DRgWIECTSZJUs2Obdx2OUmSuEPLIBab3VKHYd2oyWD1qmbHNoz6lyRJ8dAycR/p2/FDQBN/sBkXztc77FG7dtV8kJfDRYzBWf97v96VmvIOrmnihYqSC79VW9wEzhTkrxwZobdysWiFQFpAMBNpso4Bz8//vghRXP47qFCTcWdhNLd1tj7rY8/xX712DZ7yDwnYVokloKeNjSeTv2bAbContNoj4KLinUSaTBEWyhQjoIlm4MZw2KNqa78bGxuDkuFsfZvVsnvXTsgBKq5YvgQ3u8E5/rgoKUkSPJXzVy1HG5/Pd+HCr/GxzoUL5g0MDOBWzSS3q7m5ia0rPtZ548Y1cb/oW2MQ0MQfbBKI+ARXXEz0RC5i7MmTttSUd6YmJchdpGqSC4tVNEB+Ku5wYq+ltAkREBDMXJqsvX+4rLoKYqu1+skwIhsTcNwrnoWB+ZiAjQKoyTAfE5lZGbdb20JL9Ji8tQIuKt45pMkUYaFMMQJaaQZvUoJXhpeVlhQXbUhJdtuslsWLFuIhrvhOTHjf5eZN6xNccSnJbjhUFtoDb1KyWS0Jrrj16wrxTalJbteVK5ewzfBOTHzfZWbGDPl7M9GYEsYjoJU/0ELYbmmzWuQRY7AXxGa1yJe/QXLJz8KorqrAg1HYszCqqyqQn4WrP8W3gRmPEtUYMAICgplLk3UMeO62d+XMnROAnwyFFCYC1mQOe9TMWTO2797zoLvX5BIn5Jon4KIiv0mTKcJCmWIEtNJMkqShoaG9X++GQ09gp+2JH3/gzqIbGxtraDiPL6RfU1iAh1xge8BmQV6u0zHBZrVMTUqo2lr+/PkzNIBEW9vjNYUF8bFOhz1qXm5WQ8N5dNFxlvTReAQC4A80Eg70Z4+xwMbDWSfcmiZ8W1Zago8tNoE+MM4AOPPTyR85fmJdlDA5AgKCjbsmCznRQA0eVwQEXDT5XUTNCyEEiGYhNFgmbCrxx4SDEk5NEhCMNJlnXCUIFc4hIOBiON1y1JfgIkA0Cy7+oV478SfUR9Dk7RcQjDQZaTJDERBw0eR3ETUvhBAgmoXQYJmwqcQfEw5KODVJQDDSZIYqEs5pFIEfBVwMp1uO+hJcBIhmwcU/1Gsn/oT6CJq8/QKCkSYjTWYoAgIumvwuouaFEAJEsxAaLBM2lfhjwkEJpyYJCEaazFBFEoGOMa7LAi6G0y1HfQkuAkSz4OIf6rUTf0J9BE3efgHBSJORJjMUAQEXTX4XUfNCCAGiWQgNlgmbSvwx4aCEU5MEBCNNZqgi4ZxGEfhRwMVwuuWoL8FFgGgWXPxDvXbiT6iPoMnbLyAYaTLSZIYiIOCiye8ial4IIUA0C6HBMmFTiT8mHJRwapKAYKTJDFUkEegY47os4GI43XLUl+AiQDQLLv6hXjvxJ9RH0OTtFxCMNBlpMkMREHDR5HcRNS+EECCahdBgmbCpxB8TDko4NUlAMNJkhioSzmkUgR8FXAynW476ElwEiGbBxT/Uayf+hPoImrz9AoKRJiNNZigCAi6a/C6i5oUQAkSzEBosEzaV+GPCQQmnJgkIRprMUEUSgY4xrssCLobTLUd9CS4CRLPg4h/qtRN/Qn0ETd5+AcFIk5EmMxQBARdNfhdR80IIAaJZCA2WCZtK/DHhoIRTkwQEI01mqCLhnEYR+FHAxXC65agvwUWAaBZc/EO9duJPqI+gydsvIBhpMtJkhiIg4KLJ7yJqXgghQDQLocEyYVOJPyYclHBqkoBgpMkMVSQR6BjjuizgYjjdctSX4CJANAsu/qFeO/En1EfQ5O0XECwQTfb0aQf9EQKEACFACBAChAAhQAgEgICaagxEk3GeD/pICPiPgOD3gRpHKZ8Q0IoA0UwrYmTPIkD8YdGgtO4ICAhGmozWLg1FQMBF3XlPBUYsAkSziB16XTpO/NEFRipEDQEBwUiTGapI/PcnhaulgItq9KV8QkArAkQzrYiRPYsA8YdFg9K6IyAgGGky0mSGIiDgou68pwIjFgGiWcQOvS4dJ/7oAiMVooaAgGCkyQxVJOHq/fK/XwIuqtGX8gkBrQgQzbQiRvYsAsQfFg1K646AgGCkyUiTGYqAgIu6854KjFgEiGYRO/S6dJz4owuMVIgaAgKCkSYzVJH4708KV0sBF9XoS/mEgFYEiGZaESN7FgHiD4sGpXVHQEAw0mSkyQxFQMBF3XlPBUYsAkSziB16XTpO/NEFRipEDQEBwUiTGapIwtX75X+/BFxUoy/lEwJaESCaaUWM7FkEiD8sGpTWHQEBwUiTkSYzFAEBF3XnPRUYsQgQzSJ26HXpOPFHFxipEDUEBAQjTWaoIvHfnxSulgIuqtGX8gkBrQgQzbQiRvYsAsQfFg1K646AgGCkyUiTGYqAgIu6854KjFgEiGYRO/S6dJz4owuMVIgaAgKCkSYzVJGEq/fL/34JuKhGX8onBLQiQDTTihjZswgQf1g0KK07AgKCkSYjTWYoAgIu6s57KjBiESCaRezQ69Jx4o8uMFIhaggICEaazFBF4r8/KVwtBVxUoy/lEwJaESCaaUWM7FkEiD8sGpTWHQEBwUiTkSYzFAEBF3XnPRUYsQgQzSJ26HXpOPFHFxipEDUEBAQjTWaoIglX75f//RJwUY2+lE8IaEWAaKYVMbJnESD+sGhQWncEBAQjTUaazFAEBFzUnfdUYMQiQDSL2KHXpePEH11gpELUEBAQjDSZoYrEf39SuFoKuKhGX8onBLQiQDTTihjZswgQf1g0KK07AgKCkSYjTWYoAgIu6s57KjBiESCaRezQ69Jx4o8uMFIhaggICEaazFBFEq7eL//7JeCiGn0pnxDQigDRTCtiZM8iQPxh0aC07ggICDaOmqy9f3hjcZHNavlbWsrNB4/ZxzZ+lZg4+T83m9ivHnT3/nPJIpvVsrG4qL1/GL961DOwYtVKm9Vis1q+qT2K+VyirW/wh3/9nDN3jtNhtVktbvdfNm/ZcudRO2dGH4OFgICLAt4/f/6samv51KQEm9USH+tcU1hw/34LZz82NtbQcH5BXq7TMcFmtcxKT/v+aK3H40GzBw/uJ7ldZaUlmMMmLl+6aLNa6moPs5mCdFlpSZLb9eDBfbnN8PDwqpXLMjNm9Pb2SpJUV3sYeKv4PxTij40kSdBItpzpaSk7tlc/f/5M3oxIzgmAZqMjIyd+/CErM91hj3I6Jixb+s+mO7d9Ph8Loz82rL087fP5Ghsb5uVmCWqRJKm5uWnZ0n86HRMc9qh5uVmNjQ1cSyRJ6mhvX1NYEB/rBLaf+PGH0ZERrsa+vr6qreUJrjib1ZKS7N63dw97R3DG9BERCIA/cO3Q0NCxY3U4C8XHOpcu/sev9efkQ4N1jXfC5/PV7NjmsEddvnRRsS6v11tSvGlKQvzdu81+TjIwxdmsliWLPhwYGJAXK55s5fbcdKpv+fJpE6ZQnO3Fkz/0hZ11E1xxmzetf/q0U94RP3MEBBtHTdYx4Dn602mb1eKwR/3r/L9ZEXC3vSt7zt+hk4e+/4H96upv95PfTbJZLUd/Os3m/+dmU2LiZLjkw48+fNDVy34L6QddvSvyP2Gxg/TUqX/9pfGS3J5yjEdAwEU1Nre03EtJdjsdE1atXFZdVZG/anl8rDM+1nnyxHF8UHm93uqqCpvV8n7au2WlJWWlJbPS02xWy+JFC3t6nkPJ4mlCfFvK28ZNIqwBp8muXrlcXVUBf1u+KJqSEJ+WOq2ifAvk7Kz5sruryx8bnC7/+dECuBa7mZLsbmm5x7YhwtNaaTY0OFi4+lOb1ZKTnVFZUbp+7efAsXNnf0Yk/bFBY8WEz+c7WnfEYY/66MO8M2dO//jjD5kZM+JjnY2NDax9Y2NDfKzTnTi5uGhDcdEGd+Jkhz3qaN0RZLskSXBTJE9L/O7Qwfr6s58VfOKwR1VXVXi9Xiyqu7s7NycTbpzKitKc7Ayb1VKQv3JocBBtKKGIgFb+SJLk8/kuX7qY5HbZrJbpaSnFRRtwsrJZLfPnZj950qZYlwGZ169djYmeWFK8iaUH1tvd1TV7ZtrSJR8BMWAmFE8yqJleu0gO7GWZCcWKJ1usGhPcdKpv+VyPcDa+euUyNEA8+UNfsv4+Ey7EWykl2d2q9JscOyVICAg2vpoMBVb1zq/Yx/8vjZfejraDYPpsTWFb3yB+CzIu+d2kq7/dx8yOAc+OPXtsVkti4uS42Lf+4oq7cO0m+y2kwcbpsJaUl19vaW163HHs9JkZ6e/brJa8BfNbnj6XX0I5BiMg4KIig0dHRj5fnZ+S7IbfcGDT2dmRm5OZkux+/OgR5MCks7WyDH+Pjo2N1dZ+57BH1ezYNjY2JkmSeJoQ35bytnGTCGvAaTL2q97e3syMGatWLhseHmbz2bTARt7IsbGxf53+KSZ64uer87HvbGmRmdZEM5/P99XO7fGxzh+PHwOqSJLU2dmRnTVr/tzsFy/64In7Rps3Qt32+FFKsnvliqWoikA2zZ6Z1t3VBZd3dnakz0jNzcns7u7GnNyczLTUaW2P/2A73BRJbte9e3fBBn6TOOxRF87XY07R5g2s4BsdGdlaWeawR506dRJs6H81BDTxBwoBJZ0xe/qtWzdZjTI0NLT9yyqHPYodU7V6xyl/aHBw6ZKPWJqxFZ0+ddJmtZw8cRwy/ZlkYIpLcrtysjOmJMQ33bnNFvjGyZYzliSJm071LV/eI64BYgP5g2NsbOy7QwdtVkvNjm1cUX5+FBBsfDVZ67O+xcuWvHZXLFvS+qwPH//VO7+yWS0gy2bOmtH0uAO/2vzFF3J79Kvt/ubghx99aLNatlRWsiubHQOeh8/7l6342Ga1rN24gf3q0p27R46feNQzgFVQIogICLioyOaurqfp09/btHEd9wuvp+f5s2d/PLQkSdq/b49rUkxz0x22EK/X+/BhK14ov7VYY/FtyVpCmptEWAMjNZkkSUNDQyuWL0lNeSeIP8TZ7pshrYlmsOp98Jv9SBXoQs2Obbg87Y/NGzsOHDv9fyXRkcOHWOqePHGclVZQ5skTx9mnJqj2NYUFo6OjWGlLyz134uT9+/ZADug/zjUCmSTfETS1hCb+gIJPn5GanTWrs7NDXubY2Ni+va99CtxwyC3HL+fbgwdsVgvHPUmSQN+zs4fiTMhNMjjFXbzYyP3MgC6IJ1t5N7npVN/yFXvEtkFsoNgXxUy2THFaQLDx1WQdAx6QX6zfC4VaSXn5lCmT3o6248Li/ac9Cz78wGa1cH61Mw2Nb0fbp8/4263Wtm9qj9qsluw5f7/b3sVqCyyWc7yxNpQOOgICLiqSGDTZG58i+/ftiYmeeP3aVcVCIFN8F4lvS3mx3CTCGuCEAvFk7FcCHxiaCWwUG+nz+bZ8UYTqAcuJ5IRWmilideTwoTei6o8NFg7Dxz0X9+/b406cDEvPo6OjawoL0qe/19X1FK9Cr8OWL4rAAaOoyZqb7rgmxRw5fAguBOdHff1Zthxg5uyZabigz35LaURAK39A8aCrCcvBxIsXffPnZqcku9HZCSGkly9dbLpzG2MHszLTz/96Dp21cDkbg+iwR2VlprOxgzjbtLc/+Wrndgi6dSdOPvTtAdZxribH5drdn0kGK+3t6YHl+Nra71jvoHiyRVgwwU2n+pav2COsGmNCMLyM/QrvPi4QGW63rZVlnLGfHwUEG3dNhsuUGB92pfne1Kl/TX43qf7ytZzcbFaBQdAYq9I6BjxtfYNrNqxH39jNB4//lpbisEcdO32GVRi4b8DpsJZu3copNtaS0kFEQMBFRTaPjoysW7vaYY86+M1+dorhjG/cuBYf68zOmvXo0UPuK/wonibeeN9iOZDgJhH22/+dUH6P8We/EugtNBPYKDayv7//n//4ICszvbenBwuJ8IRWmsnhAv+BXB6xlv7YsPbPnnXnzsmUr13iWvaLF33ZWbPwI17LUcLr9W6tLJOvXbIKEgzke1AEvMXqKKGJP+BDElMFfPmvtiihSgZNVlK80TUpZl5uVmVFKcQOvn4gMnGBXq/324MHHPaoWelpECn7ftq7rA3MNvGxziS3i41BtFktX+3cjjoJuMqKQhhlKJwN//dnkmGnuKHBwZUrlrJsVNMxAl5xtNS3fMUesY0RG8gfHB6Pp6R4o+KiLVusIC0g2LhrsqbHHTNnzWD3UR76/gdcnSzduhXTuCeAW80EEfZ2tP1MQyMr0T75NP9x7/9Zkfz3jdtTp/4VY8pnlVUAACAASURBVPzd7r9sLC76z80mdikziHKEqu4Y8Ai4qMbg1tYHGbOn26yWBFfcpo3r/t1wQb53zOv17tm902GPgn1q+/ft6Whvx/kISoZbC0M1MdITEp8VvN4dovZTSd62stKSmOiJG9YXcuVUV1VUlG9JS52G+y7Za7mHK/sVpgU28rljdGTk4Df7HfYodv7FoiI2EQDNOKwgPEiMqj82XLE3b1xPSXYvyMvFGP+M2dNbWx+AGQw9tygpSRI8orKzZkFwmyRJfX198CA89O0BiPF3TYphd72UlZawC1LYjLraww57FEY3Yz4lWAQ08Udww7JlNjY2sDMMaLL4WOeFC7/iTNXX17d0yUfxsc4bN67BtZcvXXRNiqmt/Q6dZxA7iMsCwA2b1ZK/avnLly/hqu6uruysWZxMrK8/a7Navj14AFsFcWYYNIk1su2E9U1ukmE1kyRJ9+7dTXK72B8bch2DlSomBJrsz5cP0ybuWoAZGzZXqXWZbST34Fi/rjDBFZc8LfHy5Ys4cKy9P2kBwcZdk6GXa8GHH9x/2tPWN/jZmkL0jZ2qP++wR8HKJjq6uMVHWKxk91rCUubUqX+90nyPEzrX77WuyP8EDsIAceawRxWuX6e4T5O7lj4agICAiwIqezyeH48fg62UIM6O1h3h3GY+n+/Ro4d4OgDs025re4zFwq2Fkl0xoUmTKZaAmeOnyXByWb+uEJYqCld/imHj2N9ITgRGM0QMlJM4KNsfGywQE8+fP9u86bXXH/+2VVcODQ2BwcOHrdOmJnKrJKjJWEaNjox8/32da1IMlvNBXg6yfWTEU5C/krXHBuCSGeZQQo6AJv7AqMm9m1yx3A8qGIiaHdu45zpsV4LgcVjLXrxo4eDgH2ILyoTYQbABeYQnWWClEM5x88Z1zOH2V0qSdPPG9ZjoiRiDCJacglGcZDhN5vP5YEMV7g7WV5P9yfKhR3inQIJ1KnNDg4hBQvHBER/r/Grndrl3gLtW7aOAYOOuydD7BUeRgdsMVyfBBwYnX9zr6IalTPZ0jAddvRDUX7N3b3NbJ/xdu/sgZ+4cm9WyY88eRRnxoKv3VP35z9etjYt9CwagpLyc3d2peBVlGoCAgItq9GXzBwYGjtYdSZ6WyHnmWZuxsbHffmuG0wHY3WriaUJ8W7LlQ5r7YccacBMW+5U/P6kFNtzk4nRMWJCXe+7sz5w8ZWuMzHTANPN6vUfrjsTHOhfk5SrGa0uS5I+NIuz377ekpU6bPze76c7tsbExr9d7/fq1jNnTUfxB9CTGjWEhwKgP8nL6+/tf7+r4/eSOBFfcyRPHPR6Pz+fr7OyA8zvgWA2v17tp4zrFuLG62sMx0RPZRzXWQglEQBN/enqez56Z9kZNpugnYxcNoXbgAPhKYSrgxAR+BO2uNtvIxbfP56so34KjD+eWycWcP5OMvFJYwcRDecSTLeKMCW46DaB86C+C8+p0UsT2jXO72IDri8/n6+7qqq6qcNijijZv4DYGYY/ECQHBjNBkeCLGoe9/ABcXrk4+7h345NN8WNlsvHknMXEyd4rshWs3//L7gYcs1phmnWeKeqLl6fMly5e9PjBmxt/Y3Z2KxpRpAAICLopJzH4LJwgoLs2gGZ4FhduVuVsLLSEhvi05Y/nmbdZAPqHgtwK95Y+N1kZimZGWCIxmfX19BfkrHfaostIS9F1x0Pljw10CH0dHRzesL5QH9DTduT0lIR4WSdXoweWfOXPaYY/iIsoHBgaWLPpwQV4urG9yDzlsklo+GlBCkiRN/BkcfLl40UJuoVAO4/59e9hVY7lmgkvYsYb0vNys+vqzjf9u4P7gJBS12UaxfHTC+Xy+3p6erMx0+fYpfyYZxUphBfOzgk+Gh4fFk60cHI6WAZT/5Ekbhw/G176xR2IDxb54vd4N6wvlilbeNcUcAcGM0GTsjsiS8nI2tqxjwLP7m9fnfOTkZtfs3WuzWmCJE8RBe//wlspKVGDyBAaZCcTEiV/OwcFm3AsDBJfQV+OHgICLitxVy5R75uWW7C/ON4adim9LeeHcJMIaKE4oYMBOuOwlbFpgo7WRbLERlQ6AZk+etGVnzXoVKH35kmqYiD82ajirDSvkr1i+ZOj3fyuWL5Fv14DVMdzkpca9stIS3MJ55PAh+dHtsKbJxqWptTbC8zXxBxxO7GElcvRg3yV7QpiiZpIk6cmTttSUd8BXqsYZtny12UaxfJCPEEB24Xz9q5dJcLuA37gJEapWrBRXGI8dq1PUMWyzuTRHaX3Lf+O0KTZQ64siwly/1D4KCGaEJvvfEzGSk1JTk7kz+n+9fG3Sf7+dmDgZDnct3boVBQEeSyZfo8SFTjyo7EF379bt2/MWzL/d2oYldAx4IBxN/n4n1obShiEg4KIifYeGhs7+ckb++o6aHdvw8ePz+e7du3v9+h9RsVgOO7uRJkNYIiGhlWYvXvQtyMtlw+3lKPljI78Kc+D5ysVTS5IEvxxAk0mSVLNjG4Zv47XcoWWwv4Q7+QXWK/GmgFAhLlxJfvABVkEJFgGt/IHHttr5ZPiWEfbIe3iic85OSZLgLDoIbAVpIvetejyeZ8+6IRBNUb7gK91w/Q57Bxstz537paR4E6sR0UAsUMBMrVJcwTx96qTgRXZYFyb80WSwar9yxdJXr3XRVP4beyQ2UNRk+MaqwLbLCAhmkCbDEzFsVgt7VlnHgAfVFbyF6VT9edQHx06fcdij1E7thz2bcGhZx4DnVP15iB7LyJx17PSZpscdt1vbar7+2jU51ma1rNmwnuLJENggJgRcxPsTE3DAus1qYQ/olyTp7t3mlGQ3vgyk7fGjtNRp3Fn/eGo5nmyueGthXeLbEs0wwU0imK8YkY3f+vPDV2CjtZFYb6QlNNFMkiTuKHNFuPyxUbwQMuGtgg57FLuHDlhqs1p279oJZsDSFcuX4B46eGsFLkpKkgQeDnafnc/nu3Dh1/hY58IF8+AHDDw1k9yu5uYmKBnqYvf0CVob4V9p5Q9GSgjO8efeagWajJu1YGZ79SIHjGUEicaONYyj0zEBjtVQk0dqXhwg2NLF/3g/7d2K8i3cDoM/4ycDzsAK5tSkhJjoifLdKmq84qZTtU7hHkxN5b9x2hQbKD44YKRy52SyR5er9U6eLyCYQZoMT8RgT74AZYDbLbm3lWOoGbuayYoJ1Hlw8ll7//DeQ9+xOy5xrTMzK4NznrHlUNpIBARclBMXw5lfv07+99f/VVdVLF600OmYgMGkcFVjY0OCKw7eJFhdVVFctCEl2c2e4qPVTwZeB4yqlreNm0RYA8GEItBbWILARjx3YAmU0EqzrZVlNqvls4JP5CebfH+0Fo7L98cGTpKUrwfBiEAcJLwyvKy0BFnKvpUVn+5A+M2b1ie44ji2o98lwRW3fl1hZUUpvNQ8ye26cuUSjj77otjKitLMjBny92aiMSVYBLTyR5KksbGxH48fw1fCl5WWVFdVLF38D8gpyF/Z1/f6JV34DzRTaso7TseExYsWVldVrFq57JXSYl+HBRMgbNQFPpSVlryf9q7DHvXltq0QXa4226hpMjiozGa1yN2x0DZ/Jhm1SuEtZLW138HDFzWZ1ulUa/mIqmICeoTb1fEex1tbzeDMmdP44GAPUYJnUIIrjntTrWLtipkCghmkyfAIDDwFg9UB4A+zWS3skWNwtKyiPVyLDrYVq1biq5Ou3X2wsbjI7f4LeN3en55aVVPzoFvhheVsAyhtGAICLipyF07HOXf25wV5uU7HBDgIY+2az3DbP17V3v6konwLnA0hP+0aby2cJvBCSHAzUX9//wd5OdzSD3sJaTIWDbOltdKsrLQEf8JxCdxP54/N6VMn5StNLDhDQ0N7v949PS0FJijuTHawhPc4gcyKj3WuKSyQsx1s8KaYmpRQtbX8+fNnbF2SJLW1PYbTYeDcvoaG83jMFWdJH1kEtPIHr332rHv3rp2z0tMc9iib1TI1KeHV63pv3bophx00U2Njwy8/n4FTfuJjncs/Xox+TSxzdGTkxI8/ZGWmvwr/gq3W7DiqyRc1TYZeYfkRG1AjNxNiM9iEWqVgAyuYNqsFJ1ut06nW8tm2ydPQI+6+tlkteGurGUD7wU/GXp7giisp3ii/K+VVq+UICGaQJjPskU8VmRwBARfV6BuU/OamO0luFxeyE5SWUKUBIBAUmoEzQL6RLYD20yXBRcAA/gg0U3D7Ph6103TKoSogGGkyj8lFTJg1T8BFjrXB/Xj61El5OHZwm0S1+49AUGgGzgB51Lb/zSZLkyBgAH8iSpPRdMoRW0Aw0mSkyQxFQMBFjrVB/Ahv9RYsXAaxbVS1PwgEhWYtLfey/j4TXzLtTzvJxpwIGMCfyNFkNJ3KSS4gGGkyQxVJmDm9AuiOgIty4gYrx+fz9ff3Dw8PB6sBVO+fRCAoNBsdHX3xok8eOfQn+0KXG4+AAfyJKE1G0ynHYQHBSJORJjMUAQEXOdbSR0IgYASIZgFDRxdqPcc/MMQiR5MFhk94XyWYoEiTGapIAnAshdklAi6G901IvTMSAaKZkWiHX13En/AbU1P1SEAw0mSkyQxFQMBFU90z1JiQRoBoFtLDF/TGE3+CPgTh3QABwUiTGapIwszpFUB3BFwM75uQemckAkQzI9EOv7qIP+E3pqbqkYBgpMlIkxmKgICLprpnqDEhjQDRLKSHL+iNJ/4EfQjCuwECgpEmM1SRBOBYCrNLBFwM75uQemckAkQzI9EOv7qIP+E3pqbqkYBgpMlIkxmKgICLprpnqDEhjQDRLKSHL+iNJ/4EfQjCuwECgpEmM1SRhJnTK4DuCLgY3jch9c5IBIhmRqIdfnURf8JvTE3VIwHBSJORJjMUAQEXTXXPUGNCGgGiWUgPX9AbT/wJ+hCEdwMEBCNNZqgiCcCxFGaXCLgY3jch9c5IBIhmRqIdfnURf8JvTE3VIwHBSJORJjMUAQEXTXXPUGNCGgGiWUgPX9AbT/wJ+hCEdwMEBCNNZqgiCTOnVwDdEXAxvG9C6p2RCBDNjEQ7/Ooi/oTfmJqqRwKCkSYjTWYoAgIumuqeocaENAJEs5AevqA3nvgT9CEI7wYICEaazFBFEoBjKcwuEXAxvG9C6p2RCBDNjEQ7/Ooi/oTfmJqqRwKCBaLJnj7toD9CgBAgBAgBQoAQIAQIgQAQUNOIgWiyMPPcUHeMREDw+0CNo5RPCGhFgGimFTGyZxEg/rBoUFp3BAQEI01Ga5eGIiDgou68pwIjFgGiWcQOvS4dJ/7oAiMVooaAgGCkyQxVJEZ6pMxZl4CLavSlfEJAKwJEM62IkT2LAPGHRYPSuiMgIBhpMtJkhiIg4KLuvKcCIxYBolnEDr0uHSf+6AIjFaKGgIBgpMkMVSTm9F0Z2SoBF9XoS/mEgFYEiGZaESN7FgHiD4sGpXVHQEAw0mSkyQxFQMBF3XlPBUYsAkSziB16XTpO/NEFRipEDQEBwUiTGapIjPRImbMuARfV6Ev5hIBWBIhmWhEjexYB4g+LBqV1R0BAMNJkpMkMRUDARd15TwVGLAJEs4gdel06TvzRBUYqRA0BAcFIkxmqSMzpuzKyVQIuqtGX8gkBrQgQzbQiRvYsAsQfFg1K646AgGCkyUiTGYqAgIu6854KjFgEiGYRO/S6dJz4owuMVIgaAgKCkSYzVJEY6ZEyZ10CLqrRl/IJAa0IEM20Ikb2LALEHxYNSuuOgIBgpMlIkxmKgICLuvOeCoxYBIhmETv0unSc+KMLjFSIGgICgpEmM1SRmNN3ZWSrBFxUoy/lEwJaESCaaUWM7FkEiD8sGpTWHQEBwUiTkSYzFAEBF3XnPRUYsQgQzSJ26HXpOPFHFxipEDUEBAQjTWaoIjHSI2XOugRcVKMv5RMCWhEgmmlFjOxZBIg/LBqU1h0BAcFIk5EmMxQBARd15z0VGLEIEM0iduh16TjxRxcYqRA1BAQEI01mqCIxp+/KyFYJuKhGX8onBLQiQDTTihjZswgQf1g0KK07AgKCkSYjTWYoAgIu6s57KjBiESCaRezQ69Jx4o8uMFIhaggICEaazFBFYqRHypx1CbioRl/KJwS0IkA004oY2bMIEH9YNCitOwICgpEmI01mKAICLurOeyowYhEgmkXs0OvSceKPLjBSIWoICAhGmsxQRWJO35WRrRJwUY2+lE8IaEWAaKYVMbJnESD+sGhQWncEBAQjTUaazFAEBFzUnfdUYMQiQDSL2KHXpePEH11gpELUEBAQbNw12X9uNiUmTrZZLexfcnLSshUfH/3p9MNnLzgnzan686ylzWpxOqwZmbO+qa171DPAGdPHkENAwEVF+j54cD/J7bJZLd8ePKBoAJlDg4NLl3xks1rKSksEZopfPX/+rGpr+dSkBJvVEh/rXFNYcP9+i9zS5/Pdu3e3pHgjWNqslulpKduqK9vbn3DGw8PDq1Yuy8yY0dvby31FH41BQCvNJEkaGxtraDi/IC/X6ZjgsEfNy81qaDg/NjbGNtgfG0mS+vr6qraWJ7jibFZLSrJ73949Ho+HLUeSJJ/P13Tn9rKl/3Q6JjgdEz76MO/KlUs+n48zo49BQcB//vh8voryLa5JMc1Nd7imer3eTRvXJbldDx7c577q6nqaPv29TRvXeb1e/Mrn89Xs2GazWmp2bBMwoa3t8do1nwG7ElxxFeVbnj7txEIoERIICAgWHE2Gquudd6ac+vVCe/8wagu5JkPjjz9Z0fqsDy0pEYoICLioeC+hJps/N/vFiz5FG0mSGhsbYqInBqDJWlrupSS7nY4Jq1Yuq66qyF+1PD7WGR/rPHniODstvnz5smjzBoc9Kj7WuXTxP6qrKspKS2alp/3+m2HCd4cOsnMraTK1YTIsXyvNfD7f0bojDnvU+2nvlpWWrF/7eXys02GP2r1rJ9LAHxtJkrq7u3NzMoFRlRWlOdkZNqulIH/l0OAgdt/n8x07Vud0THAnTi4u2lBctCEl2e2wRx2tO4LVoTEljEdAE3/q68/arJb9+/Zw7ezt6cnKTLdZLXW1h7mvLl+66LBHnT51ks3v7uqaPfP1lDJ7Zlp3Vxf7FaYbGxtgglq/9vPqqorFixY6HROS3K4rVy6hDSXMj4CAYMZpsrqTPzW3dTa3dV5vaa098dOCfyxw2KNsVktc7FsnfjmH8gI0WWLi5P/cbILMW61ti5YuslktDnvUqfrzaEmJUERAwEXFGwk0WbTTFu20nfq/Uxjaj46MfL46P9ppc9ijNPnJ4MKUZPfdu81YWmdnR25OZkqy+/GjR5A5NDhYkL/SYY/a/mXV0NAQWvp8vlu3bmbMns49TUmTIUTBSmil2Y0b1+JjnVsry0ZHRqDNnZ0d2VmzUlPeefKkDXL8sfF6vUWbN8THOhsbG+Cq0ZGRrZVlr+cuhr2XL12Mj3Xmr1r+8uVLMHuVyF+1fMmiD3t7eiCH/g8iApr4A06vVSuXDQ8Ps22+fu0q/FBcU1gwOjrKflWzY5vcf3bhfH2007bqk49tVsvJE8dZe0i/eNE3f252bk5mZ2cHfnv3bnNKsjtv3hxiDmJi/oSAYMZpMk5OtfcP//Cvn+Ni37JZLZl/n3374RNQGHJN1jHg+fXytUn//bbNatn9zcFQFCLUZkRAwEXFGwk0Wf6q5fPnZi9d8hHrbEB7eFhu+aIoye3SpMkUVxAkSerpef7sWTeU7/P5vjmw12a1VFdVsM4wrL29/Un6jFR2hiVNhuAEK6GVZmNjYw8ftqJCgmZvrSxjh9Ufm7bHj1KS3SXFm1iqQObnq/NB8MEvgfQZqeyTVZIkr9fLLZUGCz2qVxN/RkdH1xQWsPIdAKzZsS0l2T0vNyt9+ntdXU8R1cHBl4sXLXz1Nzj4hyKXJAlYMX9u9t27zbNnpskVniRJzU13XJNi5A65jvb2gYEBLJ8S5kdAQLCgabKOAU97//CXu3bB0uTRn04LNNmp+vMOexT5yVDZhG5CwEXFGwk0WVlpSV3t4Zjoieh+QGOv11tSvCl3TmZjYwOryepqDyv+3IRVA/gZCpoMH5ZYJpuABQXxyunJE8chCgQuJE3GAhiUtFaayRsJcULyBy1rKbc5ferkq6jE+vqzrBnwYfbMtJ6e55IkAaUryrfQMiWLkqnSWvkDMwC7FgnC6/PV+T8cO+qwR12+dBE7CASo2bENcyRJunu3eUpCfM2ObWNjYzU7tk1JiGed92AJmkwcbcaWSWnTIiAgWDA1WceAB3cAbP7iC0VN1v5iqPHmndkZM21WC8WTha4Uw5YLuKh4/6AmA20k108wl3178ABaQjmccwIyQcClJLvbHr9elxwdGVm3drXDHnXwm/24aMU1o7GxQTFYhDUDbYc/fEmTseAEJa2VZvJGwpJQ0eYNrMeLM5PbcK41tC8rLUGXG4QfcboNLSlhBgS08gcmHzZmH3Lqag9DghVSp0+djImeeP3aVbanrA67eeN6TPRE9hKwfPGib0Febnys88yZ0+RSZdELubSAYEHWZM1tnekz37dZLZ+tKWzrG+wY8CjG+MfFvrVjzx7ad4nKJnQTAi4q3leotGANcUpCfNOd22gJO5XSUqe1PX6ElvAtyC/u56Z8aam19UHG7Ok2qyXBFbdp47p/N1zgtsiBv03un8M2SJI0NDS0YvkS3GhJmowFJyhprTSDRl69chl2b2Rlpkc7bUWbN3CrmZIkiW3KSksUXWt1tYcd9qirVy5LknTk8CHXpJg7d26d//VcVmY6bBz5ZMWytrbHQcGKKpUjoJU/4BXLykzHoK662sOwGRO2hH+Ql9Pf3w8r1Js2rmMtJUmCQDGMzYBLFCP9r1y5BPvQU5Ld5WVf3LhxTfCbQd4vyjEJAgKCmUWTLVvx8cPn/WqaDAL8NxYXyc/OCF11EpktF3BR8W5hlZZcUUEO/KBkLaEoiLFlD9E4eeK4/Beqx+P58fgx2EQJ4uxo3RF0m22tLLNZLezSg7ydnAjjPsrtKWe8EdBKM2gP6G+IpkhwxVVtLX/+/BnXVIHNyIinIH8lSnP2QrgKWFRWWuKaFLNwwbxJ8f+Vv2o57p5LcMWJacYWSOlxRSAA/uzftwfXKCHCDHXY/n178LAM2IzJetQkSbpwvt5hj2Lj+oEwis7UgYGBvV/vTkl2A1GTpyWe//Ucuc3GlQ+6Fy4gmFk02fqizaBR5DH+d9u7vqiogE2aX+7axR6cEZmyJqR7LeCiIu9ZpQVeMVx5BM8ZLgmxllBUf3//B3k5uKQIvz7xx6i8uoGBgaN1R5KnJdqslq92bodwnyOHD71Rk5GfTA5mcHO00oxtrc/n6+3pqas9nOR2paVOe/iwlf0W0oo2cB4Vxo2xV0E05M0b1yVJKistsVkt3O45OONAQE62NEqPNwIB8AcXHCVJgmAGjBiDr+BEDEizkWcQ3c+5VxVDL7heP3vWvWtXTYIrjtvVy5nRRxMiICBYkDWZfEOlXJN1DHge9QysWLXSZrXk5Gbf6+gOaVES4Y0XcFHxzuGUFkbC+nw+iDDDPW6cJZT27cED6BiD2ZD9MapYI5wvhVMkRG3L9zqx18IUXJC/cmTk9dGg5CdjwQlKWivNFBt54cKvENaj+C1kcjZs3Bh7FZu/f98e+T4A8KxMm5qoKAHZoihtAAIB8AfWH+EXYH39WfSZSZIEvjE4EWP/vj34MxI6AhNXWuq0ivIt1VUV8FdRviUtdRoXeqHYcThhEX1yijaUaTYEBAQLpiZr6xvcWFxks1r+4oq7cO0miBVFTdYx4FlftNlmtaTPfL+5rTPCZU1Id1/ARcXbhlNacP4TRFrU1R6Oj3XeuHENLuQsIRMXN2E3Eyotxbowc/++PTHRE8GrASUsyMsVnFgLUzAukpImQySDldBKM8V29vb2ZmbMQKntj82Rw4fYhzFcAmua2VmzgEKg8uXLlKxuU6yLMg1DIAD+wCbcKQnxv/3WXFG+hY0Gg9jW9OnvPXzYumrlMvTcQ3e+PXgAz0WXJ+SR/hwI4J31c2bjrqWPwUJAQLCgabK2vsEde14vwNuslo3FRRDgj/Fk7Jmx5CcLaRHGNV7ARcXbQ660IEps/7498+dms9sw5ZYQUVtSvGn2zLRbN2/MnpmGTjWoa2ho6OwvZ+RH+9Ts2OZOnNzScg9KgJCy2trvFA8vAL8ae9wUaTLFoTQyUyvNvF4ve4IUNPXJk7bUlHcw9McfG1zAYqkCsh65B0RFBQ91wQIWF/ptJGJUF4uAVv7AtRAWtmtXzQd5OUgb+Ao22+79eldqyju4ponR/YpH7YDjjf2qt7f33LlfMNQVSgYPq+KKOdsjSpsKAQHBjNNkeI7/leZ7B47UZmTOgt8EOXPn3G5twye33E/GxpOVVVdRPBliFYoJARcV7xm50oKnF5zsf+F8PV4lt4SvLl+6CKdj4yIm5Pt8vq92brdZLezp7XBQUEqym43sAdWleI5/a+uD+XOz2XPbae0SRySICU00+5//+Z9NG9dxr3PA8/eBY/7Y4NC/CkRrbm6C7kM5rEMXTmBhq/P5fBcu/AovEqBtdEGkDVatiT94FcQwJLjiYqInshFjkiSBvp+alMC5UUHGqTnDanZsc9ijgIF4cE9t7XcY0Y/MQcWPjaGEmREQEMw4TSb3yjrsUQWFq3978pTVFqDJ5MY2q2XZio8fdPWyxpQOOQQEXFS8hRSVFkxkrGzCozjl5/jDz02b1cLZvz7DYnCwcPWnr0L44bWDuAMuJdkNTjJsUndX1+JFC+El5bBXDt93Ge20/ev0T6xfBPxkUxLit3xRhAEi1VUVO2u+VHuNHVZECV0Q0Eqz+/db0lKnOR0TFi9aWF1VAS+g5F7e4I+NJEnsG1QrK0ozM2Zwr96SJOnhw1aoDt6y+tGHeQ571OJFC+FQWV0QoEL+DAJa+QN1gcvKZrVwEWMo1m1WmWfLHQAABUBJREFUC+sKhTVN3JIpbzCEz+JqQHd394K8XJvVAm9lrawonZeb5bBH5eZkdnf/8d4ReSGUY0IEBAQLgiZ7/aLf6anFZWVXf2uRO73kmszpsObMnXOw7iidTxZyCkzeYAEXFe8cRU02MDCwdMlH7AsEBZpMkiSIqlaM7h8dGTl39ucFeblOxwQ4CGPtms8UT4ryer2XL11csXxJgisODmeZlZ42f272660n2Rm3bt1EWQaaTP67Qj5TK3aZMv88Alpp9joQu7d3966d09NS4L3yC/JyGxrOo0MCmuSPjSRJbW2P1xQWwFvM5+VmycuRJOn582dVW8uBSynJ7r1f72ZfpfrnEaAS/gwCAfAHqoMD/RXfjATHW7BrmrCoLf+tiC2HNQE20n9oaOho3RE41s5mtUxNSlA8sQVLoIQ5ERAQbNw1mfypTDmRjICAi+N088CP0XGKgfV6vUfrjsDTd8f2au682XHqERX7RgSMp9kbm0QGIYQA8SeEBisUmyogGGkyTyQrJOP7LuDiON1aXIT1eNTS0nIvY/b0ivItFAw0HvAGUKbxNAugkXSJaREg/ph2aMKjYQKCkSYjTWYoAgIujsfNBufKctH941GRx+OhtafxADawMg2mWWCNpKtMiwDxx7RDEx4NExCMNJmhisR4v5TZahRwUd+b7cSPP6xfV7h2zWdOx4R1a1dzG8j1rYtKMxsChtHMbB2n9uiCAPFHFxipEDUEBAQjTUaazFAEBFxUo28A+R6PZ9PGdU7HhPhY57bqSvmbpAMoky4JIQSMoVkIAUJN1YQA8UcTXGSsFQEBwUiTGapIzOa1Mr49Ai5qpTXZEwJqCBDN1JChfH8QIP74gxLZBIyAgGCkyUiTGYqAgIsB85suJAQ4BIhmHCD0URMCxB9NcJGxVgQEBCNNZqgiMd4vZbYaBVzUSmuyJwTUECCaqSFD+f4gQPzxByWyCRgBAcFIk5EmMxQBARcD5jddSAhwCBDNOEDooyYEiD+a4CJjrQgICEaazFBFYjavlfHtEXBRK63JnhBQQ4BopoYM5fuDAPHHH5TIJmAEBAQjTUaazFAEBFwMmN90ISHAIUA04wChj5oQIP5ogouMtSIgIBhpMkMVifF+KbPVKOCiVlqTPSGghgDRTA0ZyvcHAeKPPyiRTcAICAhGmow0maEICLgYML/pQkKAQ4BoxgFCHzUhQPzRBBcZa0VAQDDSZIYqErN5rYxvj4CLWmlN9oSAGgJEMzVkKN8fBIg//qBENgEjICAYaTLSZIYiIOBiwPymCwkBDgGiGQcIfdSEAPFHE1xkrBUBAcFIkxmqSIz3S5mtRgEXtdKa7AkBNQSIZmrIUL4/CBB//EGJbAJGQEAw0mSkyQxFQMDFgPlNFxICHAJEMw4Q+qgJAeKPJrjIWCsCAoKRJjNUkZjNa2V8ewRc1EprsicE1BAgmqkhQ/n+IED88QclsgkYAQHBAtFkT5920B8hQAgQAoQAIUAIEAKEQAAIqOk5zZpMrSDKJwQIAUKAECAECAFCgBAIGAHSZAFDRxcSAoQAIUAIEAKEACGgGwKkyXSDkgoiBAgBQoAQIAQIAUIgYARIkwUMHV1ICBAChAAhQAgQAoSAbgiQJtMNSiqIECAECAFCgBAgBAiBgBEgTRYwdHQhIUAIEAKEACFACBACuiFAmkw3KKkgQoAQIAQIAUKAECAEAkaANFnA0NGFhAAhQAgQAoQAIUAI6IYAaTLdoKSCCAFCgBAgBAgBQoAQCBgB0mQBQ0cXEgKEACFACBAChAAhoBsC/w8/h6ZKgowk7gAAAABJRU5ErkJggg==;" vertex="1" parent="1">
          <mxGeometry x="162.9954545454545" y="787.0045454545452" width="817" height="410" as="geometry" />
        </mxCell>
      </root>
    </mxGraphModel>
  </diagram>
</mxfile>
